<?xml version="1.0"?>
<svg xmlns="http://www.w3.org/2000/svg" xmlns:xlink="http://www.w3.org/1999/xlink" version="1.1" width="320px" height="320px" viewBox="0 0 320 320"><rect x="0" y="0" width="320" height="320" fill="#ffffff" fill-opacity="1"/><path fill="#000000" fill-opacity="1" d="M10,10L94,10L94,22L10,22ZM130,10L142,10L142,22L130,22ZM178,10L190,10L190,22L178,22ZM226,10L310,10L310,22L226,22ZM10,22L22,22L22,34L10,34ZM82,22L94,22L94,34L82,34ZM118,22L130,22L130,34L118,34ZM166,22L178,22L178,34L166,34ZM190,22L202,22L202,34L190,34ZM226,22L238,22L238,34L226,34ZM298,22L310,22L310,34L298,34ZM10,34L22,34L22,46L10,46ZM34,34L70,34L70,46L34,46ZM82,34L94,34L94,46L82,46ZM106,34L118,34L118,46L106,46ZM142,34L154,34L154,46L142,46ZM178,34L202,34L202,46L178,46ZM226,34L238,34L238,46L226,46ZM250,34L286,34L286,46L250,46ZM298,34L310,34L310,46L298,46ZM10,46L22,46L22,58L10,58ZM34,46L70,46L70,58L34,58ZM82,46L94,46L94,58L82,58ZM118,46L130,46L130,58L118,58ZM154,46L178,46L178,58L154,58ZM190,46L214,46L214,58L190,58ZM226,46L238,46L238,58L226,58ZM250,46L286,46L286,58L250,58ZM298,46L310,46L310,58L298,58ZM10,58L22,58L22,70L10,70ZM34,58L70,58L70,70L34,70ZM82,58L94,58L94,70L82,70ZM118,58L130,58L130,70L118,70ZM154,58L190,58L190,70L154,70ZM202,58L214,58L214,70L202,70ZM226,58L238,58L238,70L226,70ZM250,58L286,58L286,70L250,70ZM298,58L310,58L310,70L298,70ZM10,70L22,70L22,82L10,82ZM82,70L94,70L94,82L82,82ZM130,70L166,70L166,82L130,82ZM178,70L202,70L202,82L178,82ZM226,70L238,70L238,82L226,82ZM298,70L310,70L310,82L298,82ZM10,82L94,82L94,94L10,94ZM106,82L118,82L118,94L106,94ZM130,82L142,82L142,94L130,94ZM154,82L166,82L166,94L154,94ZM178,82L190,82L190,94L178,94ZM202,82L214,82L214,94L202,94ZM226,82L310,82L310,94L226,94ZM106,94L118,94L118,106L106,106ZM142,94L154,94L154,106L142,106ZM202,94L214,94L214,106L202,106ZM10,106L46,106L46,118L10,118ZM58,106L118,106L118,118L58,118ZM154,106L166,106L166,118L154,118ZM202,106L238,106L238,118L202,118ZM274,106L286,106L286,118L274,118ZM10,118L22,118L22,130L10,130ZM46,118L58,118L58,130L46,130ZM94,118L106,118L106,130L94,130ZM118,118L130,118L130,130L118,130ZM142,118L178,118L178,130L142,130ZM190,118L202,118L202,130L190,130ZM250,118L274,118L274,130L250,130ZM286,118L310,118L310,130L286,130ZM22,130L34,130L34,142L22,142ZM46,130L70,130L70,142L46,142ZM82,130L94,130L94,142L82,142ZM106,130L118,130L118,142L106,142ZM130,130L166,130L166,142L130,142ZM178,130L214,130L214,142L178,142ZM226,130L238,130L238,142L226,142ZM262,130L274,130L274,142L262,142ZM298,130L310,130L310,142L298,142ZM10,142L22,142L22,154L10,154ZM70,142L82,142L82,154L70,154ZM94,142L142,142L142,154L94,154ZM154,142L190,142L190,154L154,154ZM202,142L238,142L238,154L202,154ZM262,142L274,142L274,154L262,154ZM298,142L310,142L310,154L298,154ZM10,154L34,154L34,166L10,166ZM70,154L94,154L94,166L70,166ZM106,154L118,154L118,166L106,166ZM130,154L154,154L154,166L130,166ZM178,154L190,154L190,166L178,166ZM238,154L286,154L286,166L238,166ZM298,154L310,154L310,166L298,166ZM34,166L46,166L46,178L34,178ZM58,166L70,166L70,178L58,178ZM94,166L154,166L154,178L94,178ZM178,166L190,166L190,178L178,178ZM226,166L250,166L250,178L226,178ZM262,166L274,166L274,178L262,178ZM286,166L298,166L298,178L286,178ZM10,178L22,178L22,190L10,190ZM34,178L58,178L58,190L34,190ZM70,178L94,178L94,190L70,190ZM118,178L142,178L142,190L118,190ZM166,178L178,178L178,190L166,190ZM190,178L238,178L238,190L190,190ZM262,178L274,178L274,190L262,190ZM298,178L310,178L310,190L298,190ZM22,190L34,190L34,202L22,202ZM46,190L82,190L82,202L46,202ZM94,190L106,190L106,202L94,202ZM118,190L154,190L154,202L118,202ZM214,190L238,190L238,202L214,202ZM262,190L286,190L286,202L262,202ZM10,202L22,202L22,214L10,214ZM34,202L70,202L70,214L34,214ZM82,202L106,202L106,214L82,214ZM118,202L142,202L142,214L118,214ZM154,202L166,202L166,214L154,214ZM202,202L286,202L286,214L202,214ZM298,202L310,202L310,214L298,214ZM106,214L130,214L130,226L106,226ZM142,214L178,214L178,226L142,226ZM190,214L214,214L214,226L190,226ZM250,214L274,214L274,226L250,226ZM286,214L298,214L298,226L286,226ZM10,226L94,226L94,238L10,238ZM106,226L118,226L118,238L106,238ZM142,226L166,226L166,238L142,238ZM178,226L214,226L214,238L178,238ZM226,226L238,226L238,238L226,238ZM250,226L262,226L262,238L250,238ZM286,226L310,226L310,238L286,238ZM10,238L22,238L22,250L10,250ZM82,238L94,238L94,250L82,250ZM106,238L118,238L118,250L106,250ZM154,238L214,238L214,250L154,250ZM250,238L262,238L262,250L250,250ZM274,238L310,238L310,250L274,250ZM10,250L22,250L22,262L10,262ZM34,250L70,250L70,262L34,262ZM82,250L94,250L94,262L82,262ZM106,250L118,250L118,262L106,262ZM130,250L154,250L154,262L130,262ZM178,250L190,250L190,262L178,262ZM202,250L286,250L286,262L202,262ZM10,262L22,262L22,274L10,274ZM34,262L70,262L70,274L34,274ZM82,262L94,262L94,274L82,274ZM118,262L130,262L130,274L118,274ZM142,262L154,262L154,274L142,274ZM178,262L190,262L190,274L178,274ZM202,262L214,262L214,274L202,274ZM238,262L250,262L250,274L238,274ZM10,274L22,274L22,286L10,286ZM34,274L70,274L70,286L34,286ZM82,274L94,274L94,286L82,286ZM106,274L130,274L130,286L106,286ZM166,274L178,274L178,286L166,286ZM190,274L214,274L214,286L190,286ZM274,274L286,274L286,286L274,286ZM298,274L310,274L310,286L298,286ZM10,286L22,286L22,298L10,298ZM82,286L94,286L94,298L82,298ZM106,286L118,286L118,298L106,298ZM130,286L154,286L154,298L130,298ZM202,286L214,286L214,298L202,298ZM250,286L262,286L262,298L250,298ZM298,286L310,286L310,298L298,298ZM10,298L94,298L94,310L10,310ZM106,298L142,298L142,310L106,310ZM154,298L166,298L166,310L154,310ZM190,298L202,298L202,310L190,310ZM238,298L310,298L310,310L238,310Z"/></svg>
