<?xml version="1.0"?>
<svg xmlns="http://www.w3.org/2000/svg" xmlns:xlink="http://www.w3.org/1999/xlink" version="1.1" width="320px" height="320px" viewBox="0 0 320 320"><rect x="0" y="0" width="320" height="320" fill="#ffffff" fill-opacity="1"/><path fill="#000000" fill-opacity="1" d="M10,10L94,10L94,22L10,22ZM106,10L130,10L130,22L106,22ZM190,10L202,10L202,22L190,22ZM226,10L310,10L310,22L226,22ZM10,22L22,22L22,34L10,34ZM82,22L94,22L94,34L82,34ZM178,22L214,22L214,34L178,34ZM226,22L238,22L238,34L226,34ZM298,22L310,22L310,34L298,34ZM10,34L22,34L22,46L10,46ZM34,34L70,34L70,46L34,46ZM82,34L94,34L94,46L82,46ZM106,34L118,34L118,46L106,46ZM142,34L178,34L178,46L142,46ZM190,34L214,34L214,46L190,46ZM226,34L238,34L238,46L226,46ZM250,34L286,34L286,46L250,46ZM298,34L310,34L310,46L298,46ZM10,46L22,46L22,58L10,58ZM34,46L70,46L70,58L34,58ZM82,46L94,46L94,58L82,58ZM106,46L130,46L130,58L106,58ZM142,46L154,46L154,58L142,58ZM190,46L202,46L202,58L190,58ZM226,46L238,46L238,58L226,58ZM250,46L286,46L286,58L250,58ZM298,46L310,46L310,58L298,58ZM10,58L22,58L22,70L10,70ZM34,58L70,58L70,70L34,70ZM82,58L94,58L94,70L82,70ZM106,58L154,58L154,70L106,70ZM166,58L190,58L190,70L166,70ZM202,58L214,58L214,70L202,70ZM226,58L238,58L238,70L226,70ZM250,58L286,58L286,70L250,70ZM298,58L310,58L310,70L298,70ZM10,70L22,70L22,82L10,82ZM82,70L94,70L94,82L82,82ZM118,70L130,70L130,82L118,82ZM154,70L166,70L166,82L154,82ZM178,70L190,70L190,82L178,82ZM226,70L238,70L238,82L226,82ZM298,70L310,70L310,82L298,82ZM10,82L94,82L94,94L10,94ZM106,82L118,82L118,94L106,94ZM130,82L142,82L142,94L130,94ZM154,82L166,82L166,94L154,94ZM178,82L190,82L190,94L178,94ZM202,82L214,82L214,94L202,94ZM226,82L310,82L310,94L226,94ZM118,94L130,94L130,106L118,106ZM142,94L154,94L154,106L142,106ZM166,94L202,94L202,106L166,106ZM10,106L58,106L58,118L10,118ZM82,106L94,106L94,118L82,118ZM106,106L118,106L118,118L106,118ZM166,106L190,106L190,118L166,118ZM214,106L226,106L226,118L214,118ZM250,106L286,106L286,118L250,118ZM298,106L310,106L310,118L298,118ZM10,118L22,118L22,130L10,130ZM46,118L70,118L70,130L46,130ZM94,118L130,118L130,130L94,130ZM190,118L202,118L202,130L190,130ZM214,118L274,118L274,130L214,130ZM10,130L94,130L94,142L10,142ZM106,130L118,130L118,142L106,142ZM178,130L190,130L190,142L178,142ZM202,130L226,130L226,142L202,142ZM262,130L298,130L298,142L262,142ZM10,142L58,142L58,154L10,154ZM142,142L214,142L214,154L142,154ZM226,142L238,142L238,154L226,154ZM286,142L310,142L310,154L286,154ZM10,154L46,154L46,166L10,166ZM70,154L94,154L94,166L70,166ZM106,154L130,154L130,166L106,166ZM142,154L154,154L154,166L142,166ZM190,154L214,154L214,166L190,166ZM238,154L250,154L250,166L238,166ZM262,154L274,154L274,166L262,166ZM298,154L310,154L310,166L298,166ZM22,166L34,166L34,178L22,178ZM106,166L154,166L154,178L106,178ZM166,166L178,166L178,178L166,178ZM190,166L202,166L202,178L190,178ZM226,166L238,166L238,178L226,178ZM250,166L262,166L262,178L250,178ZM286,166L298,166L298,178L286,178ZM22,178L58,178L58,190L22,190ZM70,178L94,178L94,190L70,190ZM118,178L142,178L142,190L118,190ZM154,178L166,178L166,190L154,190ZM178,178L226,178L226,190L178,190ZM238,178L274,178L274,190L238,190ZM10,190L22,190L22,202L10,202ZM46,190L82,190L82,202L46,202ZM94,190L118,190L118,202L94,202ZM154,190L178,190L178,202L154,202ZM238,190L250,190L250,202L238,202ZM262,190L274,190L274,202L262,202ZM286,190L310,190L310,202L286,202ZM34,202L46,202L46,214L34,214ZM58,202L70,202L70,214L58,214ZM82,202L130,202L130,214L82,214ZM142,202L154,202L154,214L142,214ZM202,202L298,202L298,214L202,214ZM106,214L118,214L118,226L106,226ZM154,214L178,214L178,226L154,226ZM202,214L214,214L214,226L202,226ZM250,214L262,214L262,226L250,226ZM274,214L286,214L286,226L274,226ZM10,226L94,226L94,238L10,238ZM130,226L166,226L166,238L130,238ZM202,226L214,226L214,238L202,238ZM226,226L238,226L238,238L226,238ZM250,226L310,226L310,238L250,238ZM10,238L22,238L22,250L10,250ZM82,238L94,238L94,250L82,250ZM118,238L142,238L142,250L118,250ZM154,238L166,238L166,250L154,250ZM202,238L214,238L214,250L202,250ZM250,238L310,238L310,250L250,250ZM10,250L22,250L22,262L10,262ZM34,250L70,250L70,262L34,262ZM82,250L94,250L94,262L82,262ZM118,250L178,250L178,262L118,262ZM202,250L286,250L286,262L202,262ZM298,250L310,250L310,262L298,262ZM10,262L22,262L22,274L10,274ZM34,262L70,262L70,274L34,274ZM82,262L94,262L94,274L82,274ZM106,262L130,262L130,274L106,274ZM154,262L190,262L190,274L154,274ZM202,262L238,262L238,274L202,274ZM286,262L310,262L310,274L286,274ZM10,274L22,274L22,286L10,286ZM34,274L70,274L70,286L34,286ZM82,274L94,274L94,286L82,286ZM106,274L118,274L118,286L106,286ZM142,274L178,274L178,286L142,286ZM190,274L202,274L202,286L190,286ZM214,274L238,274L238,286L214,286ZM286,274L298,274L298,286L286,286ZM10,286L22,286L22,298L10,298ZM82,286L94,286L94,298L82,298ZM106,286L118,286L118,298L106,298ZM190,286L202,286L202,298L190,298ZM214,286L226,286L226,298L214,298ZM250,286L310,286L310,298L250,298ZM10,298L94,298L94,310L10,310ZM106,298L130,298L130,310L106,310ZM154,298L166,298L166,310L154,310ZM178,298L190,298L190,310L178,310ZM202,298L214,298L214,310L202,310ZM238,298L250,298L250,310L238,310ZM286,298L310,298L310,310L286,310Z"/></svg>
