<?xml version="1.0"?>
<svg xmlns="http://www.w3.org/2000/svg" xmlns:xlink="http://www.w3.org/1999/xlink" version="1.1" width="320px" height="320px" viewBox="0 0 320 320"><rect x="0" y="0" width="320" height="320" fill="#ffffff" fill-opacity="1"/><path fill="#000000" fill-opacity="1" d="M15,15L85,15L85,25L15,25ZM105,15L135,15L135,25L105,25ZM145,15L175,15L175,25L145,25ZM185,15L195,15L195,25L185,25ZM205,15L225,15L225,25L205,25ZM235,15L305,15L305,25L235,25ZM15,25L25,25L25,35L15,35ZM75,25L85,25L85,35L75,35ZM125,25L155,25L155,35L125,35ZM175,25L225,25L225,35L175,35ZM235,25L245,25L245,35L235,35ZM295,25L305,25L305,35L295,35ZM15,35L25,35L25,45L15,45ZM35,35L65,35L65,45L35,45ZM75,35L85,35L85,45L75,45ZM105,35L135,35L135,45L105,45ZM145,35L165,35L165,45L145,45ZM185,35L225,35L225,45L185,45ZM235,35L245,35L245,45L235,45ZM255,35L285,35L285,45L255,45ZM295,35L305,35L305,45L295,45ZM15,45L25,45L25,55L15,55ZM35,45L65,45L65,55L35,55ZM75,45L85,45L85,55L75,55ZM95,45L105,45L105,55L95,55ZM115,45L135,45L135,55L115,55ZM155,45L165,45L165,55L155,55ZM185,45L205,45L205,55L185,55ZM215,45L225,45L225,55L215,55ZM235,45L245,45L245,55L235,55ZM255,45L285,45L285,55L255,55ZM295,45L305,45L305,55L295,55ZM15,55L25,55L25,65L15,65ZM35,55L65,55L65,65L35,65ZM75,55L85,55L85,65L75,65ZM95,55L105,55L105,65L95,65ZM115,55L125,55L125,65L115,65ZM135,55L145,55L145,65L135,65ZM165,55L175,55L175,65L165,65ZM215,55L225,55L225,65L215,65ZM235,55L245,55L245,65L235,65ZM255,55L285,55L285,65L255,65ZM295,55L305,55L305,65L295,65ZM15,65L25,65L25,75L15,75ZM75,65L85,65L85,75L75,75ZM105,65L125,65L125,75L105,75ZM145,65L155,65L155,75L145,75ZM175,65L205,65L205,75L175,75ZM215,65L225,65L225,75L215,75ZM235,65L245,65L245,75L235,75ZM295,65L305,65L305,75L295,75ZM15,75L85,75L85,85L15,85ZM95,75L105,75L105,85L95,85ZM115,75L125,75L125,85L115,85ZM135,75L145,75L145,85L135,85ZM155,75L165,75L165,85L155,85ZM175,75L185,75L185,85L175,85ZM195,75L205,75L205,85L195,85ZM215,75L225,75L225,85L215,85ZM235,75L305,75L305,85L235,85ZM105,85L115,85L115,95L105,95ZM135,85L145,85L145,95L135,95ZM165,85L175,85L175,95L165,95ZM205,85L225,85L225,95L205,95ZM15,95L35,95L35,105L15,105ZM65,95L95,95L95,105L65,105ZM105,95L125,95L125,105L105,105ZM135,95L145,95L145,105L135,105ZM155,95L205,95L205,105L155,105ZM215,95L225,95L225,105L215,105ZM255,95L275,95L275,105L255,105ZM35,105L55,105L55,115L35,115ZM65,105L75,105L75,115L65,115ZM85,105L95,105L95,115L85,115ZM115,105L125,105L125,115L115,115ZM165,105L185,105L185,115L165,115ZM195,105L205,105L205,115L195,115ZM215,105L235,105L235,115L215,115ZM245,105L255,105L255,115L245,115ZM275,105L285,105L285,115L275,115ZM295,105L305,105L305,115L295,115ZM25,115L95,115L95,125L25,125ZM105,115L115,115L115,125L105,125ZM125,115L155,115L155,125L125,125ZM185,115L215,115L215,125L185,125ZM265,115L305,115L305,125L265,125ZM15,125L25,125L25,135L15,135ZM35,125L45,125L45,135L35,135ZM65,125L75,125L75,135L65,135ZM115,125L135,125L135,135L115,135ZM155,125L175,125L175,135L155,135ZM185,125L275,125L275,135L185,135ZM285,125L305,125L305,135L285,135ZM25,135L55,135L55,145L25,145ZM65,135L85,135L85,145L65,145ZM105,135L125,135L125,145L105,145ZM155,135L175,135L175,145L155,145ZM195,135L255,135L255,145L195,145ZM265,135L275,135L275,145L265,145ZM285,135L305,135L305,145L285,145ZM45,145L65,145L65,155L45,155ZM85,145L125,145L125,155L85,155ZM135,145L145,145L145,155L135,155ZM205,145L225,145L225,155L205,155ZM235,145L265,145L265,155L235,155ZM295,145L305,145L305,155L295,155ZM15,155L45,155L45,165L15,165ZM65,155L125,155L125,165L65,165ZM145,155L155,155L155,165L145,165ZM165,155L175,155L175,165L165,165ZM185,155L205,155L205,165L185,165ZM215,155L235,155L235,165L215,165ZM275,155L295,155L295,165L275,165ZM15,165L25,165L25,175L15,175ZM35,165L55,165L55,175L35,175ZM65,165L75,165L75,175L65,175ZM105,165L125,165L125,175L105,175ZM135,165L155,165L155,175L135,175ZM195,165L215,165L215,175L195,175ZM245,165L275,165L275,175L245,175ZM285,165L295,165L295,175L285,175ZM15,175L45,175L45,185L15,185ZM55,175L85,175L85,185L55,185ZM135,175L145,175L145,185L135,185ZM165,175L185,175L185,185L165,185ZM215,175L255,175L255,185L215,185ZM265,175L275,175L275,185L265,185ZM285,175L295,175L295,185L285,185ZM15,185L35,185L35,195L15,195ZM45,185L55,185L55,195L45,195ZM85,185L125,185L125,195L85,195ZM155,185L175,185L175,195L155,195ZM225,185L245,185L245,195L225,195ZM265,185L275,185L275,195L265,195ZM285,185L305,185L305,195L285,195ZM15,195L35,195L35,205L15,205ZM45,195L65,195L65,205L45,205ZM75,195L95,195L95,205L75,205ZM135,195L175,195L175,205L135,205ZM195,195L205,195L205,205L195,205ZM215,195L225,195L225,205L215,205ZM235,195L255,195L255,205L235,205ZM265,195L285,195L285,205L265,205ZM295,195L305,195L305,205L295,205ZM15,205L25,205L25,215L15,215ZM35,205L45,205L45,215L35,215ZM55,205L75,205L75,215L55,215ZM125,205L135,205L135,215L125,215ZM165,205L175,205L175,215L165,215ZM205,205L225,205L225,215L205,215ZM255,205L275,205L275,215L255,215ZM295,205L305,205L305,215L295,215ZM15,215L25,215L25,225L15,225ZM35,215L45,215L45,225L35,225ZM55,215L65,215L65,225L55,225ZM75,215L85,215L85,225L75,225ZM95,215L105,215L105,225L95,225ZM125,215L135,215L135,225L125,225ZM165,215L205,215L205,225L165,225ZM215,215L275,215L275,225L215,225ZM285,215L295,215L295,225L285,225ZM95,225L125,225L125,235L95,235ZM135,225L165,225L165,235L135,235ZM195,225L205,225L205,235L195,235ZM215,225L225,225L225,235L215,235ZM255,225L285,225L285,235L255,235ZM295,225L305,225L305,235L295,235ZM15,235L85,235L85,245L15,245ZM95,235L105,235L105,245L95,245ZM115,235L125,235L125,245L115,245ZM145,235L175,235L175,245L145,245ZM185,235L205,235L205,245L185,245ZM215,235L225,235L225,245L215,245ZM235,235L245,235L245,245L235,245ZM255,235L285,235L285,245L255,245ZM15,245L25,245L25,255L15,255ZM75,245L85,245L85,255L75,255ZM95,245L125,245L125,255L95,255ZM135,245L155,245L155,255L135,255ZM165,245L175,245L175,255L165,255ZM185,245L195,245L195,255L185,255ZM205,245L225,245L225,255L205,255ZM255,245L265,245L265,255L255,255ZM275,245L285,245L285,255L275,255ZM295,245L305,245L305,255L295,255ZM15,255L25,255L25,265L15,265ZM35,255L65,255L65,265L35,265ZM75,255L85,255L85,265L75,265ZM115,255L155,255L155,265L115,265ZM165,255L295,255L295,265L165,265ZM15,265L25,265L25,275L15,275ZM35,265L65,265L65,275L35,275ZM75,265L85,265L85,275L75,275ZM105,265L115,265L115,275L105,275ZM175,265L185,265L185,275L175,275ZM195,265L225,265L225,275L195,275ZM245,265L275,265L275,275L245,275ZM285,265L295,265L295,275L285,275ZM15,275L25,275L25,285L15,285ZM35,275L65,275L65,285L35,285ZM75,275L85,275L85,285L75,285ZM115,275L145,275L145,285L115,285ZM165,275L175,275L175,285L165,285ZM205,275L215,275L215,285L205,285ZM245,275L255,275L255,285L245,285ZM275,275L295,275L295,285L275,285ZM15,285L25,285L25,295L15,295ZM75,285L85,285L85,295L75,295ZM95,285L105,285L105,295L95,295ZM115,285L135,285L135,295L115,295ZM185,285L215,285L215,295L185,295ZM225,285L245,285L245,295L225,295ZM275,285L295,285L295,295L275,295ZM15,295L85,295L85,305L15,305ZM95,295L105,295L105,305L95,305ZM125,295L135,295L135,305L125,305ZM165,295L185,295L185,305L165,305ZM195,295L205,295L205,305L195,305ZM225,295L275,295L275,305L225,305Z"/></svg>
