<?xml version="1.0"?>
<svg xmlns="http://www.w3.org/2000/svg" xmlns:xlink="http://www.w3.org/1999/xlink" version="1.1" width="320px" height="320px" viewBox="0 0 320 320"><rect x="0" y="0" width="320" height="320" fill="#ffffff" fill-opacity="1"/><path fill="#000000" fill-opacity="1" d="M15,15L85,15L85,25L15,25ZM115,15L125,15L125,25L115,25ZM135,15L175,15L175,25L135,25ZM215,15L225,15L225,25L215,25ZM235,15L305,15L305,25L235,25ZM15,25L25,25L25,35L15,35ZM75,25L85,25L85,35L75,35ZM95,25L105,25L105,35L95,35ZM115,25L125,25L125,35L115,35ZM145,25L195,25L195,35L145,35ZM235,25L245,25L245,35L235,35ZM295,25L305,25L305,35L295,35ZM15,35L25,35L25,45L15,45ZM35,35L65,35L65,45L35,45ZM75,35L85,35L85,45L75,45ZM135,35L155,35L155,45L135,45ZM165,35L175,35L175,45L165,45ZM195,35L225,35L225,45L195,45ZM235,35L245,35L245,45L235,45ZM255,35L285,35L285,45L255,45ZM295,35L305,35L305,45L295,45ZM15,45L25,45L25,55L15,55ZM35,45L65,45L65,55L35,55ZM75,45L85,45L85,55L75,55ZM95,45L125,45L125,55L95,55ZM135,45L145,45L145,55L135,55ZM155,45L175,45L175,55L155,55ZM235,45L245,45L245,55L235,55ZM255,45L285,45L285,55L255,55ZM295,45L305,45L305,55L295,55ZM15,55L25,55L25,65L15,65ZM35,55L65,55L65,65L35,65ZM75,55L85,55L85,65L75,65ZM105,55L115,55L115,65L105,65ZM165,55L185,55L185,65L165,65ZM195,55L205,55L205,65L195,65ZM215,55L225,55L225,65L215,65ZM235,55L245,55L245,65L235,65ZM255,55L285,55L285,65L255,65ZM295,55L305,55L305,65L295,65ZM15,65L25,65L25,75L15,75ZM75,65L85,65L85,75L75,75ZM95,65L115,65L115,75L95,75ZM125,65L145,65L145,75L125,75ZM185,65L195,65L195,75L185,75ZM205,65L215,65L215,75L205,75ZM235,65L245,65L245,75L235,75ZM295,65L305,65L305,75L295,75ZM15,75L85,75L85,85L15,85ZM95,75L105,75L105,85L95,85ZM115,75L125,75L125,85L115,85ZM135,75L145,75L145,85L135,85ZM155,75L165,75L165,85L155,85ZM175,75L185,75L185,85L175,85ZM195,75L205,75L205,85L195,85ZM215,75L225,75L225,85L215,85ZM235,75L305,75L305,85L235,85ZM105,85L135,85L135,95L105,95ZM155,85L165,85L165,95L155,95ZM175,85L185,85L185,95L175,95ZM195,85L225,85L225,95L195,95ZM15,95L65,95L65,105L15,105ZM75,95L115,95L115,105L75,105ZM125,95L135,95L135,105L125,105ZM185,95L195,95L195,105L185,105ZM215,95L235,95L235,105L215,105ZM245,95L255,95L255,105L245,105ZM265,95L275,95L275,105L265,105ZM285,95L295,95L295,105L285,105ZM15,105L35,105L35,115L15,115ZM45,105L65,105L65,115L45,115ZM115,105L125,105L125,115L115,115ZM135,105L175,105L175,115L135,115ZM205,105L225,105L225,115L205,115ZM235,105L255,105L255,115L235,115ZM285,105L295,105L295,115L285,115ZM15,115L55,115L55,125L15,125ZM65,115L85,115L85,125L65,125ZM95,115L105,115L105,125L95,125ZM115,115L125,115L125,125L115,125ZM145,115L175,115L175,125L145,125ZM185,115L195,115L195,125L185,125ZM215,115L225,115L225,125L215,125ZM265,115L295,115L295,125L265,125ZM15,125L45,125L45,135L15,135ZM85,125L95,125L95,135L85,135ZM135,125L155,125L155,135L135,135ZM165,125L175,125L175,135L165,135ZM185,125L225,125L225,135L185,135ZM235,125L275,125L275,135L235,135ZM295,125L305,125L305,135L295,135ZM15,135L25,135L25,145L15,145ZM55,135L65,135L65,145L55,145ZM75,135L95,135L95,145L75,145ZM105,135L125,135L125,145L105,145ZM135,135L145,135L145,145L135,145ZM155,135L185,135L185,145L155,145ZM195,135L205,135L205,145L195,145ZM215,135L235,135L235,145L215,145ZM265,135L295,135L295,145L265,145ZM15,145L25,145L25,155L15,155ZM65,145L75,145L75,155L65,155ZM95,145L105,145L105,155L95,155ZM205,145L265,145L265,155L205,155ZM295,145L305,145L305,155L295,155ZM15,155L35,155L35,165L15,165ZM45,155L65,155L65,165L45,165ZM75,155L85,155L85,165L75,165ZM105,155L145,155L145,165L105,165ZM165,155L195,155L195,165L165,165ZM205,155L215,155L215,165L205,165ZM225,155L235,155L235,165L225,165ZM275,155L295,155L295,165L275,165ZM35,165L45,165L45,175L35,175ZM65,165L75,165L75,175L65,175ZM85,165L95,165L95,175L85,175ZM125,165L135,165L135,175L125,175ZM155,165L165,165L165,175L155,175ZM175,165L285,165L285,175L175,175ZM295,165L305,165L305,175L295,175ZM25,175L55,175L55,185L25,185ZM75,175L105,175L105,185L75,185ZM115,175L135,175L135,185L115,185ZM165,175L175,175L175,185L165,185ZM185,175L195,175L195,185L185,185ZM225,175L255,175L255,185L225,185ZM265,175L275,175L275,185L265,185ZM285,175L295,175L295,185L285,185ZM15,185L25,185L25,195L15,195ZM65,185L75,185L75,195L65,195ZM85,185L125,185L125,195L85,195ZM135,185L185,185L185,195L135,195ZM195,185L225,185L225,195L195,195ZM235,185L245,185L245,195L235,195ZM265,185L275,185L275,195L265,195ZM285,185L295,185L295,195L285,195ZM15,195L25,195L25,205L15,205ZM35,195L65,195L65,205L35,205ZM75,195L105,195L105,205L75,205ZM145,195L195,195L195,205L145,205ZM205,195L215,195L215,205L205,205ZM285,195L295,195L295,205L285,205ZM15,205L25,205L25,215L15,215ZM35,205L45,205L45,215L35,215ZM65,205L75,205L75,215L65,215ZM85,205L95,205L95,215L85,215ZM105,205L115,205L115,215L105,215ZM135,205L155,205L155,215L135,215ZM175,205L185,205L185,215L175,215ZM195,205L235,205L235,215L195,215ZM255,205L275,205L275,215L255,215ZM285,205L305,205L305,215L285,215ZM15,215L25,215L25,225L15,225ZM45,215L55,215L55,225L45,225ZM75,215L115,215L115,225L75,225ZM135,215L145,215L145,225L135,225ZM155,215L195,215L195,225L155,225ZM215,215L275,215L275,225L215,225ZM285,215L295,215L295,225L285,225ZM95,225L115,225L115,235L95,235ZM205,225L225,225L225,235L205,235ZM255,225L275,225L275,235L255,235ZM285,225L295,225L295,235L285,235ZM15,235L85,235L85,245L15,245ZM95,235L145,235L145,245L95,245ZM165,235L175,235L175,245L165,245ZM185,235L225,235L225,245L185,245ZM235,235L245,235L245,245L235,245ZM255,235L285,235L285,245L255,245ZM15,245L25,245L25,255L15,255ZM75,245L85,245L85,255L75,255ZM105,245L135,245L135,255L105,255ZM155,245L165,245L165,255L155,255ZM175,245L205,245L205,255L175,255ZM215,245L225,245L225,255L215,255ZM255,245L265,245L265,255L255,255ZM275,245L305,245L305,255L275,255ZM15,255L25,255L25,265L15,265ZM35,255L65,255L65,265L35,265ZM75,255L85,255L85,265L75,265ZM95,255L135,255L135,265L95,265ZM165,255L265,255L265,265L165,265ZM285,255L305,255L305,265L285,265ZM15,265L25,265L25,275L15,275ZM35,265L65,265L65,275L35,275ZM75,265L85,265L85,275L75,275ZM95,265L105,265L105,275L95,275ZM115,265L125,265L125,275L115,275ZM135,265L175,265L175,275L135,275ZM215,265L235,265L235,275L215,275ZM245,265L275,265L275,275L245,275ZM15,275L25,275L25,285L15,285ZM35,275L65,275L65,285L35,285ZM75,275L85,275L85,285L75,285ZM95,275L105,275L105,285L95,285ZM145,275L175,275L175,285L145,285ZM205,275L215,275L215,285L205,285ZM245,275L255,275L255,285L245,285ZM275,275L295,275L295,285L275,285ZM15,285L25,285L25,295L15,295ZM75,285L85,285L85,295L75,295ZM95,285L115,285L115,295L95,295ZM135,285L155,285L155,295L135,295ZM175,285L185,285L185,295L175,295ZM195,285L225,285L225,295L195,295ZM295,285L305,285L305,295L295,295ZM15,295L85,295L85,305L15,305ZM95,295L105,295L105,305L95,305ZM115,295L125,295L125,305L115,305ZM135,295L145,295L145,305L135,305ZM155,295L175,295L175,305L155,305ZM185,295L195,295L195,305L185,305ZM225,295L275,295L275,305L225,305Z"/></svg>
