<?xml version="1.0"?>
<svg xmlns="http://www.w3.org/2000/svg" xmlns:xlink="http://www.w3.org/1999/xlink" version="1.1" width="320px" height="320px" viewBox="0 0 320 320"><rect x="0" y="0" width="320" height="320" fill="#ffffff" fill-opacity="1"/><path fill="#000000" fill-opacity="1" d="M13,13L111,13L111,27L13,27ZM153,13L167,13L167,27L153,27ZM181,13L195,13L195,27L181,27ZM209,13L307,13L307,27L209,27ZM13,27L27,27L27,41L13,41ZM97,27L111,27L111,41L97,41ZM125,27L167,27L167,41L125,41ZM181,27L195,27L195,41L181,41ZM209,27L223,27L223,41L209,41ZM293,27L307,27L307,41L293,41ZM13,41L27,41L27,55L13,55ZM41,41L83,41L83,55L41,55ZM97,41L111,41L111,55L97,55ZM153,41L167,41L167,55L153,55ZM181,41L195,41L195,55L181,55ZM209,41L223,41L223,55L209,55ZM237,41L279,41L279,55L237,55ZM293,41L307,41L307,55L293,55ZM13,55L27,55L27,69L13,69ZM41,55L83,55L83,69L41,69ZM97,55L111,55L111,69L97,69ZM125,55L153,55L153,69L125,69ZM181,55L195,55L195,69L181,69ZM209,55L223,55L223,69L209,69ZM237,55L279,55L279,69L237,69ZM293,55L307,55L307,69L293,69ZM13,69L27,69L27,83L13,83ZM41,69L83,69L83,83L41,83ZM97,69L111,69L111,83L97,83ZM139,69L153,69L153,83L139,83ZM167,69L181,69L181,83L167,83ZM209,69L223,69L223,83L209,83ZM237,69L279,69L279,83L237,83ZM293,69L307,69L307,83L293,83ZM13,83L27,83L27,97L13,97ZM97,83L111,83L111,97L97,97ZM125,83L139,83L139,97L125,97ZM209,83L223,83L223,97L209,97ZM293,83L307,83L307,97L293,97ZM13,97L111,97L111,111L13,111ZM125,97L139,97L139,111L125,111ZM153,97L167,97L167,111L153,111ZM181,97L195,97L195,111L181,111ZM209,97L307,97L307,111L209,111ZM139,111L153,111L153,125L139,125ZM13,125L83,125L83,139L13,139ZM97,125L139,125L139,139L97,139ZM181,125L209,125L209,139L181,139ZM223,125L237,125L237,139L223,139ZM251,125L265,125L265,139L251,139ZM279,125L293,125L293,139L279,139ZM41,139L55,139L55,153L41,153ZM69,139L97,139L97,153L69,153ZM139,139L167,139L167,153L139,153ZM195,139L209,139L209,153L195,153ZM223,139L237,139L237,153L223,153ZM265,139L293,139L293,153L265,153ZM13,153L27,153L27,167L13,167ZM69,153L125,153L125,167L69,167ZM139,153L153,153L153,167L139,167ZM181,153L195,153L195,167L181,167ZM209,153L265,153L265,167L209,167ZM279,153L307,153L307,167L279,167ZM27,167L41,167L41,181L27,181ZM83,167L97,167L97,181L83,181ZM111,167L139,167L139,181L111,181ZM167,167L181,167L181,181L167,181ZM237,167L251,167L251,181L237,181ZM265,167L279,167L279,181L265,181ZM13,181L41,181L41,195L13,195ZM55,181L69,181L69,195L55,195ZM83,181L125,181L125,195L83,195ZM167,181L209,181L209,195L167,195ZM125,195L181,195L181,209L125,209ZM195,195L209,195L209,209L195,209ZM265,195L279,195L279,209L265,209ZM13,209L111,209L111,223L13,223ZM125,209L181,209L181,223L125,223ZM209,209L223,209L223,223L209,223ZM251,209L265,209L265,223L251,223ZM279,209L293,209L293,223L279,223ZM13,223L27,223L27,237L13,237ZM97,223L111,223L111,237L97,237ZM139,223L153,223L153,237L139,237ZM195,223L237,223L237,237L195,237ZM293,223L307,223L307,237L293,237ZM13,237L27,237L27,251L13,251ZM41,237L83,237L83,251L41,251ZM97,237L111,237L111,251L97,251ZM125,237L209,237L209,251L125,251ZM251,237L279,237L279,251L251,251ZM293,237L307,237L307,251L293,251ZM13,251L27,251L27,265L13,265ZM41,251L83,251L83,265L41,265ZM97,251L111,251L111,265L97,265ZM125,251L167,251L167,265L125,265ZM265,251L293,251L293,265L265,265ZM13,265L27,265L27,279L13,279ZM41,265L83,265L83,279L41,279ZM97,265L111,265L111,279L97,279ZM125,265L139,265L139,279L125,279ZM153,265L195,265L195,279L153,279ZM209,265L223,265L223,279L209,279ZM237,265L265,265L265,279L237,279ZM13,279L27,279L27,293L13,293ZM97,279L111,279L111,293L97,293ZM125,279L139,279L139,293L125,293ZM209,279L251,279L251,293L209,293ZM265,279L307,279L307,293L265,293ZM13,293L111,293L111,307L13,307ZM125,293L237,293L237,307L125,307ZM251,293L265,293L265,307L251,307ZM279,293L293,293L293,307L279,307Z"/></svg>
