<?xml version="1.0"?>
<svg xmlns="http://www.w3.org/2000/svg" xmlns:xlink="http://www.w3.org/1999/xlink" version="1.1" width="320px" height="320px" viewBox="0 0 320 320"><rect x="0" y="0" width="320" height="320" fill="#ffffff" fill-opacity="1"/><path fill="#000000" fill-opacity="1" d="M11,11L74,11L74,20L11,20ZM101,11L110,11L110,20L101,20ZM155,11L164,11L164,20L155,20ZM182,11L191,11L191,20L182,20ZM245,11L308,11L308,20L245,20ZM11,20L20,20L20,29L11,29ZM65,20L74,20L74,29L65,29ZM92,20L101,20L101,29L92,29ZM137,20L155,20L155,29L137,29ZM173,20L200,20L200,29L173,29ZM218,20L227,20L227,29L218,29ZM245,20L254,20L254,29L245,29ZM299,20L308,20L308,29L299,29ZM11,29L20,29L20,38L11,38ZM29,29L56,29L56,38L29,38ZM65,29L74,29L74,38L65,38ZM83,29L92,29L92,38L83,38ZM110,29L119,29L119,38L110,38ZM128,29L146,29L146,38L128,38ZM164,29L191,29L191,38L164,38ZM218,29L236,29L236,38L218,38ZM245,29L254,29L254,38L245,38ZM263,29L290,29L290,38L263,38ZM299,29L308,29L308,38L299,38ZM11,38L20,38L20,47L11,47ZM29,38L56,38L56,47L29,47ZM65,38L74,38L74,47L65,47ZM92,38L101,38L101,47L92,47ZM119,38L173,38L173,47L119,47ZM182,38L200,38L200,47L182,47ZM218,38L236,38L236,47L218,47ZM245,38L254,38L254,47L245,47ZM263,38L290,38L290,47L263,47ZM299,38L308,38L308,47L299,47ZM11,47L20,47L20,56L11,56ZM29,47L56,47L56,56L29,56ZM65,47L74,47L74,56L65,56ZM92,47L101,47L101,56L92,56ZM119,47L128,47L128,56L119,56ZM137,47L164,47L164,56L137,56ZM182,47L200,47L200,56L182,56ZM209,47L236,47L236,56L209,56ZM245,47L254,47L254,56L245,56ZM263,47L290,47L290,56L263,56ZM299,47L308,47L308,56L299,56ZM11,56L20,56L20,65L11,65ZM65,56L74,56L74,65L65,65ZM101,56L128,56L128,65L101,65ZM137,56L146,56L146,65L137,65ZM173,56L182,56L182,65L173,65ZM200,56L227,56L227,65L200,65ZM245,56L254,56L254,65L245,65ZM299,56L308,56L308,65L299,65ZM11,65L74,65L74,74L11,74ZM83,65L92,65L92,74L83,74ZM101,65L110,65L110,74L101,74ZM119,65L128,65L128,74L119,74ZM137,65L146,65L146,74L137,74ZM155,65L164,65L164,74L155,74ZM173,65L182,65L182,74L173,74ZM191,65L200,65L200,74L191,74ZM209,65L218,65L218,74L209,74ZM227,65L236,65L236,74L227,74ZM245,65L308,65L308,74L245,74ZM83,74L92,74L92,83L83,83ZM110,74L119,74L119,83L110,83ZM128,74L137,74L137,83L128,83ZM164,74L182,74L182,83L164,83ZM200,74L209,74L209,83L200,83ZM218,74L236,74L236,83L218,83ZM11,83L38,83L38,92L11,92ZM47,83L92,83L92,92L47,92ZM119,83L137,83L137,92L119,92ZM155,83L164,83L164,92L155,92ZM200,83L218,83L218,92L200,92ZM236,83L254,83L254,92L236,92ZM281,83L290,83L290,92L281,92ZM20,92L29,92L29,101L20,101ZM74,92L101,92L101,101L74,101ZM110,92L173,92L173,101L110,101ZM182,92L191,92L191,101L182,101ZM200,92L209,92L209,101L200,101ZM236,92L245,92L245,101L236,101ZM254,92L281,92L281,101L254,101ZM290,92L299,92L299,101L290,101ZM20,101L29,101L29,110L20,110ZM38,101L56,101L56,110L38,110ZM65,101L83,101L83,110L65,110ZM101,101L137,101L137,110L101,110ZM155,101L173,101L173,110L155,110ZM191,101L254,101L254,110L191,110ZM263,101L272,101L272,110L263,110ZM299,101L308,101L308,110L299,110ZM47,110L65,110L65,119L47,119ZM74,110L83,110L83,119L74,119ZM92,110L110,110L110,119L92,119ZM119,110L128,110L128,119L119,119ZM155,110L164,110L164,119L155,119ZM191,110L209,110L209,119L191,119ZM236,110L254,110L254,119L236,119ZM281,110L290,110L290,119L281,119ZM299,110L308,110L308,119L299,119ZM11,119L29,119L29,128L11,128ZM38,119L56,119L56,128L38,128ZM65,119L74,119L74,128L65,128ZM83,119L92,119L92,128L83,128ZM101,119L119,119L119,128L101,128ZM128,119L137,119L137,128L128,128ZM173,119L182,119L182,128L173,128ZM191,119L200,119L200,128L191,128ZM227,119L236,119L236,128L227,128ZM254,119L263,119L263,128L254,128ZM272,119L290,119L290,128L272,128ZM299,119L308,119L308,128L299,128ZM29,128L38,128L38,137L29,137ZM47,128L56,128L56,137L47,137ZM92,128L119,128L119,137L92,137ZM128,128L173,128L173,137L128,137ZM191,128L218,128L218,137L191,137ZM227,128L236,128L236,137L227,137ZM254,128L272,128L272,137L254,137ZM11,137L20,137L20,146L11,146ZM47,137L56,137L56,146L47,146ZM65,137L74,137L74,146L65,146ZM92,137L101,137L101,146L92,146ZM128,137L137,137L137,146L128,146ZM155,137L182,137L182,146L155,146ZM200,137L218,137L218,146L200,146ZM227,137L254,137L254,146L227,146ZM281,137L290,137L290,146L281,146ZM299,137L308,137L308,146L299,146ZM20,146L47,146L47,155L20,155ZM56,146L65,146L65,155L56,155ZM74,146L83,146L83,155L74,155ZM92,146L101,146L101,155L92,155ZM110,146L119,146L119,155L110,155ZM128,146L146,146L146,155L128,155ZM155,146L164,146L164,155L155,155ZM191,146L218,146L218,155L191,155ZM227,146L236,146L236,155L227,155ZM245,146L263,146L263,155L245,155ZM299,146L308,146L308,155L299,155ZM11,155L20,155L20,164L11,164ZM47,155L56,155L56,164L47,164ZM65,155L83,155L83,164L65,164ZM119,155L146,155L146,164L119,164ZM155,155L182,155L182,164L155,164ZM200,155L218,155L218,164L200,164ZM245,155L254,155L254,164L245,164ZM272,155L290,155L290,164L272,164ZM299,155L308,155L308,164L299,164ZM11,164L47,164L47,173L11,173ZM83,164L92,164L92,173L83,173ZM110,164L137,164L137,173L110,173ZM155,164L191,164L191,173L155,173ZM200,164L209,164L209,173L200,173ZM227,164L236,164L236,173L227,173ZM245,164L263,164L263,173L245,173ZM299,164L308,164L308,173L299,173ZM11,173L20,173L20,182L11,182ZM56,173L74,173L74,182L56,182ZM83,173L137,173L137,182L83,182ZM146,173L173,173L173,182L146,182ZM191,173L200,173L200,182L191,182ZM218,173L263,173L263,182L218,182ZM272,173L281,173L281,182L272,182ZM299,173L308,173L308,182L299,182ZM29,182L56,182L56,191L29,191ZM101,182L110,182L110,191L101,191ZM119,182L128,182L128,191L119,191ZM155,182L164,182L164,191L155,191ZM191,182L209,182L209,191L191,191ZM227,182L236,182L236,191L227,191ZM245,182L254,182L254,191L245,191ZM272,182L290,182L290,191L272,191ZM299,182L308,182L308,191L299,191ZM11,191L20,191L20,200L11,200ZM38,191L56,191L56,200L38,200ZM65,191L92,191L92,200L65,200ZM101,191L119,191L119,200L101,200ZM137,191L146,191L146,200L137,200ZM191,191L218,191L218,200L191,200ZM236,191L263,191L263,200L236,200ZM281,191L290,191L290,200L281,200ZM299,191L308,191L308,200L299,200ZM20,200L38,200L38,209L20,209ZM47,200L65,200L65,209L47,209ZM83,200L101,200L101,209L83,209ZM110,200L119,200L119,209L110,209ZM128,200L155,200L155,209L128,209ZM164,200L182,200L182,209L164,209ZM200,200L209,200L209,209L200,209ZM236,200L245,200L245,209L236,209ZM263,200L272,200L272,209L263,209ZM290,200L308,200L308,209L290,209ZM11,209L20,209L20,218L11,218ZM29,209L74,209L74,218L29,218ZM83,209L110,209L110,218L83,218ZM128,209L137,209L137,218L128,218ZM146,209L173,209L173,218L146,218ZM182,209L254,209L254,218L182,218ZM299,209L308,209L308,218L299,218ZM20,218L29,218L29,227L20,227ZM38,218L47,218L47,227L38,227ZM56,218L65,218L65,227L56,227ZM74,218L92,218L92,227L74,227ZM110,218L119,218L119,227L110,227ZM128,218L146,218L146,227L128,227ZM155,218L173,218L173,227L155,227ZM182,218L200,218L200,227L182,227ZM236,218L254,218L254,227L236,227ZM272,218L281,218L281,227L272,227ZM290,218L299,218L299,227L290,227ZM11,227L20,227L20,236L11,236ZM29,227L56,227L56,236L29,236ZM65,227L101,227L101,236L65,236ZM119,227L128,227L128,236L119,236ZM173,227L182,227L182,236L173,236ZM200,227L218,227L218,236L200,236ZM227,227L308,227L308,236L227,236ZM83,236L101,236L101,245L83,245ZM110,236L137,236L137,245L110,245ZM146,236L155,236L155,245L146,245ZM164,236L182,236L182,245L164,245ZM200,236L218,236L218,245L200,245ZM227,236L236,236L236,245L227,245ZM263,236L272,236L272,245L263,245ZM290,236L299,236L299,245L290,245ZM11,245L74,245L74,254L11,254ZM83,245L137,245L137,254L83,254ZM155,245L173,245L173,254L155,254ZM182,245L209,245L209,254L182,254ZM227,245L236,245L236,254L227,254ZM245,245L254,245L254,254L245,254ZM263,245L272,245L272,254L263,254ZM290,245L308,245L308,254L290,254ZM11,254L20,254L20,263L11,263ZM65,254L74,254L74,263L65,263ZM83,254L101,254L101,263L83,263ZM119,254L128,254L128,263L119,263ZM155,254L164,254L164,263L155,263ZM200,254L209,254L209,263L200,263ZM218,254L236,254L236,263L218,263ZM263,254L272,254L272,263L263,263ZM281,254L308,254L308,263L281,263ZM11,263L20,263L20,272L11,272ZM29,263L56,263L56,272L29,272ZM65,263L74,263L74,272L65,272ZM83,263L128,263L128,272L83,272ZM137,263L146,263L146,272L137,272ZM155,263L164,263L164,272L155,272ZM173,263L182,263L182,272L173,272ZM191,263L200,263L200,272L191,272ZM209,263L290,263L290,272L209,272ZM11,272L20,272L20,281L11,281ZM29,272L56,272L56,281L29,281ZM65,272L74,272L74,281L65,281ZM92,272L101,272L101,281L92,281ZM110,272L119,272L119,281L110,281ZM128,272L137,272L137,281L128,281ZM146,272L218,272L218,281L146,281ZM227,272L236,272L236,281L227,281ZM245,272L281,272L281,281L245,281ZM11,281L20,281L20,290L11,290ZM29,281L56,281L56,290L29,290ZM65,281L74,281L74,290L65,290ZM83,281L110,281L110,290L83,290ZM119,281L137,281L137,290L119,290ZM164,281L173,281L173,290L164,290ZM191,281L209,281L209,290L191,290ZM218,281L245,281L245,290L218,290ZM254,281L272,281L272,290L254,290ZM299,281L308,281L308,290L299,290ZM11,290L20,290L20,299L11,299ZM65,290L74,290L74,299L65,299ZM83,290L92,290L92,299L83,299ZM101,290L119,290L119,299L101,299ZM155,290L164,290L164,299L155,299ZM191,290L200,290L200,299L191,299ZM218,290L236,290L236,299L218,299ZM254,290L290,290L290,299L254,299ZM299,290L308,290L308,299L299,299ZM11,299L74,299L74,308L11,308ZM83,299L110,299L110,308L83,308ZM155,299L173,299L173,308L155,308ZM191,299L209,299L209,308L191,308ZM227,299L245,299L245,308L227,308ZM254,299L281,299L281,308L254,308ZM290,299L308,299L308,308L290,308Z"/></svg>
