<?xml version="1.0"?>
<svg xmlns="http://www.w3.org/2000/svg" xmlns:xlink="http://www.w3.org/1999/xlink" version="1.1" width="320px" height="320px" viewBox="0 0 320 320"><rect x="0" y="0" width="320" height="320" fill="#ffffff" fill-opacity="1"/><path fill="#000000" fill-opacity="1" d="M15,15L85,15L85,25L15,25ZM125,15L145,15L145,25L125,25ZM165,15L195,15L195,25L165,25ZM205,15L215,15L215,25L205,25ZM235,15L305,15L305,25L235,25ZM15,25L25,25L25,35L15,35ZM75,25L85,25L85,35L75,35ZM105,25L125,25L125,35L105,35ZM145,25L165,25L165,35L145,35ZM175,25L195,25L195,35L175,35ZM235,25L245,25L245,35L235,35ZM295,25L305,25L305,35L295,35ZM15,35L25,35L25,45L15,45ZM35,35L65,35L65,45L35,45ZM75,35L85,35L85,45L75,45ZM135,35L155,35L155,45L135,45ZM165,35L175,35L175,45L165,45ZM195,35L225,35L225,45L195,45ZM235,35L245,35L245,45L235,45ZM255,35L285,35L285,45L255,45ZM295,35L305,35L305,45L295,45ZM15,45L25,45L25,55L15,55ZM35,45L65,45L65,55L35,55ZM75,45L85,45L85,55L75,55ZM95,45L105,45L105,55L95,55ZM135,45L145,45L145,55L135,55ZM175,45L185,45L185,55L175,55ZM215,45L225,45L225,55L215,55ZM235,45L245,45L245,55L235,55ZM255,45L285,45L285,55L255,55ZM295,45L305,45L305,55L295,55ZM15,55L25,55L25,65L15,65ZM35,55L65,55L65,65L35,65ZM75,55L85,55L85,65L75,65ZM95,55L115,55L115,65L95,65ZM165,55L185,55L185,65L165,65ZM195,55L205,55L205,65L195,65ZM215,55L225,55L225,65L215,65ZM235,55L245,55L245,65L235,65ZM255,55L285,55L285,65L255,65ZM295,55L305,55L305,65L295,65ZM15,65L25,65L25,75L15,75ZM75,65L85,65L85,75L75,75ZM125,65L145,65L145,75L125,75ZM165,65L175,65L175,75L165,75ZM185,65L195,65L195,75L185,75ZM205,65L215,65L215,75L205,75ZM235,65L245,65L245,75L235,75ZM295,65L305,65L305,75L295,75ZM15,75L85,75L85,85L15,85ZM95,75L105,75L105,85L95,85ZM115,75L125,75L125,85L115,85ZM135,75L145,75L145,85L135,85ZM155,75L165,75L165,85L155,85ZM175,75L185,75L185,85L175,85ZM195,75L205,75L205,85L195,85ZM215,75L225,75L225,85L215,85ZM235,75L305,75L305,85L235,85ZM115,85L135,85L135,95L115,95ZM155,85L185,85L185,95L155,95ZM195,85L225,85L225,95L195,95ZM15,95L35,95L35,105L15,105ZM65,95L95,95L95,105L65,105ZM105,95L115,95L115,105L105,105ZM125,95L135,95L135,105L125,105ZM185,95L195,95L195,105L185,105ZM215,95L225,95L225,105L215,105ZM255,95L275,95L275,105L255,105ZM15,105L25,105L25,115L15,115ZM35,105L45,105L45,115L35,115ZM65,105L75,105L75,115L65,115ZM85,105L115,105L115,115L85,115ZM135,105L155,105L155,115L135,115ZM175,105L185,105L185,115L175,115ZM205,105L215,105L215,115L205,115ZM225,105L235,105L235,115L225,115ZM245,105L255,105L255,115L245,115ZM275,105L305,105L305,115L275,115ZM25,115L35,115L35,125L25,125ZM45,115L65,115L65,125L45,125ZM75,115L85,115L85,125L75,125ZM95,115L105,115L105,125L95,125ZM115,115L125,115L125,125L115,125ZM145,115L175,115L175,125L145,125ZM185,115L195,115L195,125L185,125ZM215,115L225,115L225,125L215,125ZM265,115L305,115L305,125L265,125ZM15,125L25,125L25,135L15,135ZM35,125L65,125L65,135L35,135ZM85,125L115,125L115,135L85,135ZM135,125L155,125L155,135L135,135ZM185,125L275,125L275,135L185,135ZM285,125L305,125L305,135L285,135ZM15,135L25,135L25,145L15,145ZM75,135L85,135L85,145L75,145ZM105,135L115,135L115,145L105,145ZM125,135L155,135L155,145L125,145ZM165,135L175,135L175,145L165,145ZM185,135L215,135L215,145L185,145ZM225,135L255,135L255,145L225,145ZM285,135L305,135L305,145L285,145ZM15,145L35,145L35,155L15,155ZM55,145L65,145L65,155L55,155ZM85,145L95,145L95,155L85,155ZM105,145L115,145L115,155L105,155ZM165,145L175,145L175,155L165,155ZM205,145L225,145L225,155L205,155ZM235,145L265,145L265,155L235,155ZM295,145L305,145L305,155L295,155ZM15,155L25,155L25,165L15,165ZM35,155L55,155L55,165L35,165ZM65,155L145,155L145,165L65,165ZM165,155L195,155L195,165L165,165ZM205,155L215,155L215,165L205,165ZM225,155L235,155L235,165L225,165ZM275,155L295,155L295,165L275,165ZM45,165L65,165L65,175L45,175ZM85,165L95,165L95,175L85,175ZM105,165L115,165L115,175L105,175ZM125,165L135,165L135,175L125,175ZM165,165L175,165L175,175L165,175ZM185,165L215,165L215,175L185,175ZM245,165L275,165L275,175L245,175ZM285,165L295,165L295,175L285,175ZM35,175L105,175L105,185L35,185ZM115,175L135,175L135,185L115,185ZM165,175L175,175L175,185L165,185ZM185,175L195,175L195,185L185,185ZM225,175L255,175L255,185L225,185ZM265,175L275,175L275,185L265,185ZM285,175L295,175L295,185L285,185ZM15,185L25,185L25,195L15,195ZM45,185L65,185L65,195L45,195ZM95,185L105,185L105,195L95,195ZM135,185L165,185L165,195L135,195ZM175,185L185,185L185,195L175,195ZM195,185L245,185L245,195L195,195ZM265,185L275,185L275,195L265,195ZM15,195L35,195L35,205L15,205ZM75,195L95,195L95,205L75,205ZM115,195L135,195L135,205L115,205ZM165,195L175,195L175,205L165,205ZM215,195L225,195L225,205L215,205ZM235,195L255,195L255,205L235,205ZM265,195L305,195L305,205L265,205ZM15,205L25,205L25,215L15,215ZM45,205L55,205L55,215L45,215ZM85,205L95,205L95,215L85,215ZM105,205L125,205L125,215L105,215ZM135,205L155,205L155,215L135,215ZM165,205L185,205L185,215L165,215ZM195,205L225,205L225,215L195,215ZM255,205L275,205L275,215L255,215ZM295,205L305,205L305,215L295,215ZM15,215L25,215L25,225L15,225ZM35,215L45,215L45,225L35,225ZM55,215L65,215L65,225L55,225ZM75,215L85,215L85,225L75,225ZM95,215L115,215L115,225L95,225ZM135,215L145,215L145,225L135,225ZM155,215L195,215L195,225L155,225ZM215,215L275,215L275,225L215,225ZM285,215L295,215L295,225L285,225ZM95,225L105,225L105,235L95,235ZM115,225L125,225L125,235L115,235ZM155,225L185,225L185,235L155,235ZM205,225L225,225L225,235L205,235ZM255,225L285,225L285,235L255,235ZM295,225L305,225L305,235L295,235ZM15,235L85,235L85,245L15,245ZM95,235L105,235L105,245L95,245ZM115,235L145,235L145,245L115,245ZM165,235L175,235L175,245L165,245ZM185,235L225,235L225,245L185,245ZM235,235L245,235L245,245L235,245ZM255,235L285,235L285,245L255,245ZM15,245L25,245L25,255L15,255ZM75,245L85,245L85,255L75,255ZM95,245L115,245L115,255L95,255ZM125,245L135,245L135,255L125,255ZM155,245L205,245L205,255L155,255ZM215,245L225,245L225,255L215,255ZM255,245L265,245L265,255L255,255ZM275,245L285,245L285,255L275,255ZM295,245L305,245L305,255L295,255ZM15,255L25,255L25,265L15,265ZM35,255L65,255L65,265L35,265ZM75,255L85,255L85,265L75,265ZM105,255L125,255L125,265L105,265ZM145,255L175,255L175,265L145,265ZM195,255L205,255L205,265L195,265ZM215,255L295,255L295,265L215,265ZM15,265L25,265L25,275L15,275ZM35,265L65,265L65,275L35,275ZM75,265L85,265L85,275L75,275ZM115,265L125,265L125,275L115,275ZM135,265L165,265L165,275L135,275ZM215,265L225,265L225,275L215,275ZM245,265L275,265L275,275L245,275ZM285,265L295,265L295,275L285,275ZM15,275L25,275L25,285L15,285ZM35,275L65,275L65,285L35,285ZM75,275L85,275L85,285L75,285ZM105,275L115,275L115,285L105,285ZM145,275L175,275L175,285L145,285ZM205,275L215,275L215,285L205,285ZM245,275L255,275L255,285L245,285ZM275,275L295,275L295,285L275,285ZM15,285L25,285L25,295L15,295ZM75,285L85,285L85,295L75,295ZM95,285L105,285L105,295L95,295ZM115,285L125,285L125,295L115,295ZM135,285L175,285L175,295L135,295ZM195,285L215,285L215,295L195,295ZM225,285L245,285L245,295L225,295ZM275,285L295,285L295,295L275,295ZM15,295L85,295L85,305L15,305ZM95,295L115,295L115,305L95,305ZM135,295L145,295L145,305L135,305ZM155,295L175,295L175,305L155,305ZM185,295L195,295L195,305L185,305ZM225,295L275,295L275,305L225,305Z"/></svg>
