<?xml version="1.0"?>
<svg xmlns="http://www.w3.org/2000/svg" xmlns:xlink="http://www.w3.org/1999/xlink" version="1.1" width="320px" height="320px" viewBox="0 0 320 320"><rect x="0" y="0" width="320" height="320" fill="#ffffff" fill-opacity="1"/><path fill="#000000" fill-opacity="1" d="M10,10L94,10L94,22L10,22ZM106,10L142,10L142,22L106,22ZM190,10L214,10L214,22L190,22ZM226,10L310,10L310,22L226,22ZM10,22L22,22L22,34L10,34ZM82,22L94,22L94,34L82,34ZM142,22L154,22L154,34L142,34ZM190,22L202,22L202,34L190,34ZM226,22L238,22L238,34L226,34ZM298,22L310,22L310,34L298,34ZM10,34L22,34L22,46L10,46ZM34,34L70,34L70,46L34,46ZM82,34L94,34L94,46L82,46ZM106,34L118,34L118,46L106,46ZM130,34L142,34L142,46L130,46ZM154,34L166,34L166,46L154,46ZM226,34L238,34L238,46L226,46ZM250,34L286,34L286,46L250,46ZM298,34L310,34L310,46L298,46ZM10,46L22,46L22,58L10,58ZM34,46L70,46L70,58L34,58ZM82,46L94,46L94,58L82,58ZM106,46L130,46L130,58L106,58ZM154,46L214,46L214,58L154,58ZM226,46L238,46L238,58L226,58ZM250,46L286,46L286,58L250,58ZM298,46L310,46L310,58L298,58ZM10,58L22,58L22,70L10,70ZM34,58L70,58L70,70L34,70ZM82,58L94,58L94,70L82,70ZM106,58L130,58L130,70L106,70ZM190,58L202,58L202,70L190,70ZM226,58L238,58L238,70L226,70ZM250,58L286,58L286,70L250,70ZM298,58L310,58L310,70L298,70ZM10,70L22,70L22,82L10,82ZM82,70L94,70L94,82L82,82ZM118,70L130,70L130,82L118,82ZM166,70L214,70L214,82L166,82ZM226,70L238,70L238,82L226,82ZM298,70L310,70L310,82L298,82ZM10,82L94,82L94,94L10,94ZM106,82L118,82L118,94L106,94ZM130,82L142,82L142,94L130,94ZM154,82L166,82L166,94L154,94ZM178,82L190,82L190,94L178,94ZM202,82L214,82L214,94L202,94ZM226,82L310,82L310,94L226,94ZM118,94L130,94L130,106L118,106ZM142,94L166,94L166,106L142,106ZM190,94L202,94L202,106L190,106ZM10,106L58,106L58,118L10,118ZM82,106L94,106L94,118L82,118ZM106,106L118,106L118,118L106,118ZM154,106L166,106L166,118L154,118ZM178,106L190,106L190,118L178,118ZM214,106L226,106L226,118L214,118ZM250,106L286,106L286,118L250,118ZM298,106L310,106L310,118L298,118ZM10,118L22,118L22,130L10,130ZM58,118L70,118L70,130L58,130ZM106,118L130,118L130,130L106,130ZM142,118L154,118L154,130L142,130ZM190,118L202,118L202,130L190,130ZM214,118L274,118L274,130L214,130ZM22,130L34,130L34,142L22,142ZM58,130L70,130L70,142L58,142ZM82,130L106,130L106,142L82,142ZM190,130L202,130L202,142L190,142ZM214,130L226,130L226,142L214,142ZM262,130L298,130L298,142L262,142ZM10,142L34,142L34,154L10,154ZM46,142L58,142L58,154L46,154ZM70,142L82,142L82,154L70,154ZM154,142L178,142L178,154L154,154ZM226,142L238,142L238,154L226,154ZM274,142L310,142L310,154L274,154ZM22,154L34,154L34,166L22,166ZM58,154L94,154L94,166L58,166ZM106,154L130,154L130,166L106,166ZM178,154L214,154L214,166L178,166ZM238,154L250,154L250,166L238,166ZM262,154L286,154L286,166L262,166ZM298,154L310,154L310,166L298,166ZM22,166L46,166L46,178L22,178ZM58,166L82,166L82,178L58,178ZM130,166L142,166L142,178L130,178ZM190,166L202,166L202,178L190,178ZM226,166L238,166L238,178L226,178ZM250,166L262,166L262,178L250,178ZM286,166L298,166L298,178L286,178ZM22,178L58,178L58,190L22,190ZM70,178L94,178L94,190L70,190ZM106,178L154,178L154,190L106,190ZM190,178L226,178L226,190L190,190ZM238,178L274,178L274,190L238,190ZM286,178L310,178L310,190L286,190ZM10,190L22,190L22,202L10,202ZM34,190L46,190L46,202L34,202ZM58,190L70,190L70,202L58,202ZM130,190L142,190L142,202L130,202ZM166,190L178,190L178,202L166,202ZM238,190L250,190L250,202L238,202ZM262,190L274,190L274,202L262,202ZM286,190L310,190L310,202L286,202ZM70,202L106,202L106,214L70,214ZM142,202L190,202L190,214L142,214ZM202,202L262,202L262,214L202,214ZM286,202L298,202L298,214L286,214ZM106,214L118,214L118,226L106,226ZM142,214L154,214L154,226L142,226ZM166,214L190,214L190,226L166,226ZM202,214L214,214L214,226L202,226ZM250,214L262,214L262,226L250,226ZM274,214L286,214L286,226L274,226ZM10,226L94,226L94,238L10,238ZM142,226L166,226L166,238L142,238ZM178,226L190,226L190,238L178,238ZM202,226L214,226L214,238L202,238ZM226,226L238,226L238,238L226,238ZM250,226L310,226L310,238L250,238ZM10,238L22,238L22,250L10,250ZM82,238L94,238L94,250L82,250ZM118,238L142,238L142,250L118,250ZM166,238L178,238L178,250L166,250ZM202,238L214,238L214,250L202,250ZM250,238L310,238L310,250L250,250ZM10,250L22,250L22,262L10,262ZM34,250L70,250L70,262L34,262ZM82,250L94,250L94,262L82,262ZM130,250L142,250L142,262L130,262ZM154,250L178,250L178,262L154,262ZM202,250L286,250L286,262L202,262ZM298,250L310,250L310,262L298,262ZM10,262L22,262L22,274L10,274ZM34,262L70,262L70,274L34,274ZM82,262L94,262L94,274L82,274ZM106,262L130,262L130,274L106,274ZM178,262L190,262L190,274L178,274ZM202,262L238,262L238,274L202,274ZM286,262L310,262L310,274L286,274ZM10,274L22,274L22,286L10,286ZM34,274L70,274L70,286L34,286ZM82,274L94,274L94,286L82,286ZM106,274L118,274L118,286L106,286ZM142,274L166,274L166,286L142,286ZM190,274L202,274L202,286L190,286ZM214,274L238,274L238,286L214,286ZM286,274L298,274L298,286L286,286ZM10,286L22,286L22,298L10,298ZM82,286L94,286L94,298L82,298ZM106,286L130,286L130,298L106,298ZM154,286L166,286L166,298L154,298ZM190,286L202,286L202,298L190,298ZM214,286L226,286L226,298L214,298ZM250,286L310,286L310,298L250,298ZM10,298L94,298L94,310L10,310ZM106,298L142,298L142,310L106,310ZM166,298L190,298L190,310L166,310ZM202,298L214,298L214,310L202,310ZM238,298L250,298L250,310L238,310ZM286,298L310,298L310,310L286,310Z"/></svg>
