<?xml version="1.0"?>
<svg xmlns="http://www.w3.org/2000/svg" xmlns:xlink="http://www.w3.org/1999/xlink" version="1.1" width="320px" height="320px" viewBox="0 0 320 320"><rect x="0" y="0" width="320" height="320" fill="#ffffff" fill-opacity="1"/><path fill="#000000" fill-opacity="1" d="M11,11L74,11L74,20L11,20ZM110,11L128,11L128,20L110,20ZM137,11L164,11L164,20L137,20ZM173,11L182,11L182,20L173,20ZM209,11L227,11L227,20L209,20ZM245,11L308,11L308,20L245,20ZM11,20L20,20L20,29L11,29ZM65,20L74,20L74,29L65,29ZM83,20L155,20L155,29L83,29ZM245,20L254,20L254,29L245,29ZM299,20L308,20L308,29L299,29ZM11,29L20,29L20,38L11,38ZM29,29L56,29L56,38L29,38ZM65,29L74,29L74,38L65,38ZM83,29L92,29L92,38L83,38ZM101,29L110,29L110,38L101,38ZM146,29L155,29L155,38L146,38ZM173,29L200,29L200,38L173,38ZM209,29L218,29L218,38L209,38ZM245,29L254,29L254,38L245,38ZM263,29L290,29L290,38L263,38ZM299,29L308,29L308,38L299,38ZM11,38L20,38L20,47L11,47ZM29,38L56,38L56,47L29,47ZM65,38L74,38L74,47L65,47ZM92,38L101,38L101,47L92,47ZM110,38L137,38L137,47L110,47ZM146,38L164,38L164,47L146,47ZM182,38L191,38L191,47L182,47ZM200,38L236,38L236,47L200,47ZM245,38L254,38L254,47L245,47ZM263,38L290,38L290,47L263,47ZM299,38L308,38L308,47L299,47ZM11,47L20,47L20,56L11,56ZM29,47L56,47L56,56L29,56ZM65,47L74,47L74,56L65,56ZM83,47L101,47L101,56L83,56ZM128,47L137,47L137,56L128,56ZM146,47L164,47L164,56L146,56ZM182,47L191,47L191,56L182,56ZM227,47L236,47L236,56L227,56ZM245,47L254,47L254,56L245,56ZM263,47L290,47L290,56L263,56ZM299,47L308,47L308,56L299,56ZM11,56L20,56L20,65L11,65ZM65,56L74,56L74,65L65,65ZM83,56L92,56L92,65L83,65ZM101,56L110,56L110,65L101,65ZM146,56L155,56L155,65L146,65ZM173,56L182,56L182,65L173,65ZM191,56L200,56L200,65L191,65ZM245,56L254,56L254,65L245,65ZM299,56L308,56L308,65L299,65ZM11,65L74,65L74,74L11,74ZM83,65L92,65L92,74L83,74ZM101,65L110,65L110,74L101,74ZM119,65L128,65L128,74L119,74ZM137,65L146,65L146,74L137,74ZM155,65L164,65L164,74L155,74ZM173,65L182,65L182,74L173,74ZM191,65L200,65L200,74L191,74ZM209,65L218,65L218,74L209,74ZM227,65L236,65L236,74L227,74ZM245,65L308,65L308,74L245,74ZM83,74L92,74L92,83L83,83ZM101,74L110,74L110,83L101,83ZM119,74L137,74L137,83L119,83ZM164,74L173,74L173,83L164,83ZM182,74L200,74L200,83L182,83ZM209,74L218,74L218,83L209,83ZM227,74L236,74L236,83L227,83ZM11,83L29,83L29,92L11,92ZM38,83L47,83L47,92L38,92ZM65,83L83,83L83,92L65,92ZM110,83L119,83L119,92L110,92ZM137,83L146,83L146,92L137,92ZM164,83L173,83L173,92L164,92ZM200,83L227,83L227,92L200,92ZM245,83L272,83L272,92L245,92ZM281,83L299,83L299,92L281,92ZM11,92L20,92L20,101L11,101ZM29,92L38,92L38,101L29,101ZM47,92L65,92L65,101L47,101ZM83,92L101,92L101,101L83,101ZM119,92L146,92L146,101L119,101ZM155,92L182,92L182,101L155,101ZM200,92L218,92L218,101L200,101ZM236,92L254,92L254,101L236,101ZM272,92L281,92L281,101L272,101ZM290,92L308,92L308,101L290,101ZM29,101L38,101L38,110L29,110ZM56,101L74,101L74,110L56,110ZM119,101L128,101L128,110L119,110ZM146,101L155,101L155,110L146,110ZM164,101L173,101L173,110L164,110ZM182,101L191,101L191,110L182,110ZM200,101L236,101L236,110L200,110ZM245,101L254,101L254,110L245,110ZM290,101L308,101L308,110L290,110ZM11,110L20,110L20,119L11,119ZM56,110L65,110L65,119L56,119ZM74,110L83,110L83,119L74,119ZM92,110L128,110L128,119L92,119ZM137,110L146,110L146,119L137,119ZM155,110L164,110L164,119L155,119ZM173,110L182,110L182,119L173,119ZM200,110L227,110L227,119L200,119ZM272,110L290,110L290,119L272,119ZM38,119L56,119L56,128L38,128ZM65,119L83,119L83,128L65,128ZM101,119L110,119L110,128L101,128ZM155,119L164,119L164,128L155,128ZM236,119L263,119L263,128L236,128ZM272,119L290,119L290,128L272,128ZM299,119L308,119L308,128L299,128ZM47,128L56,128L56,137L47,137ZM110,128L119,128L119,137L110,137ZM137,128L146,128L146,137L137,137ZM155,128L173,128L173,137L155,137ZM182,128L218,128L218,137L182,137ZM236,128L245,128L245,137L236,137ZM254,128L263,128L263,137L254,137ZM299,128L308,128L308,137L299,137ZM20,137L29,137L29,146L20,146ZM38,137L47,137L47,146L38,146ZM56,137L74,137L74,146L56,146ZM101,137L146,137L146,146L101,146ZM182,137L191,137L191,146L182,146ZM200,137L209,137L209,146L200,146ZM218,137L227,137L227,146L218,146ZM236,137L245,137L245,146L236,146ZM272,137L290,137L290,146L272,146ZM11,146L56,146L56,155L11,155ZM92,146L101,146L101,155L92,155ZM119,146L128,146L128,155L119,155ZM155,146L164,146L164,155L155,155ZM191,146L200,146L200,155L191,155ZM227,146L263,146L263,155L227,155ZM299,146L308,146L308,155L299,155ZM38,155L83,155L83,164L38,164ZM92,155L110,155L110,164L92,164ZM128,155L146,155L146,164L128,164ZM173,155L191,155L191,164L173,164ZM227,155L236,155L236,164L227,164ZM263,155L308,155L308,164L263,164ZM11,164L47,164L47,173L11,173ZM74,164L92,164L92,173L74,173ZM119,164L137,164L137,173L119,173ZM146,164L155,164L155,173L146,173ZM200,164L209,164L209,173L200,173ZM227,164L245,164L245,173L227,173ZM254,164L263,164L263,173L254,173ZM272,164L281,164L281,173L272,173ZM290,164L299,164L299,173L290,173ZM20,173L29,173L29,182L20,182ZM38,173L74,173L74,182L38,182ZM101,173L110,173L110,182L101,182ZM128,173L137,173L137,182L128,182ZM164,173L173,173L173,182L164,182ZM200,173L209,173L209,182L200,182ZM236,173L263,173L263,182L236,182ZM272,173L281,173L281,182L272,182ZM299,173L308,173L308,182L299,182ZM20,182L38,182L38,191L20,191ZM74,182L92,182L92,191L74,191ZM101,182L110,182L110,191L101,191ZM119,182L137,182L137,191L119,191ZM146,182L155,182L155,191L146,191ZM191,182L218,182L218,191L191,191ZM227,182L236,182L236,191L227,191ZM245,182L254,182L254,191L245,191ZM263,182L308,182L308,191L263,191ZM11,191L38,191L38,200L11,200ZM47,191L83,191L83,200L47,200ZM110,191L119,191L119,200L110,200ZM128,191L146,191L146,200L128,200ZM164,191L182,191L182,200L164,200ZM191,191L200,191L200,200L191,200ZM218,191L245,191L245,200L218,200ZM254,191L263,191L263,200L254,200ZM272,191L290,191L290,200L272,200ZM38,200L65,200L65,209L38,209ZM74,200L110,200L110,209L74,209ZM119,200L137,200L137,209L119,209ZM164,200L182,200L182,209L164,209ZM200,200L218,200L218,209L200,209ZM227,200L245,200L245,209L227,209ZM263,200L272,200L272,209L263,209ZM290,200L308,200L308,209L290,209ZM11,209L29,209L29,218L11,218ZM38,209L56,209L56,218L38,218ZM65,209L83,209L83,218L65,218ZM119,209L128,209L128,218L119,218ZM146,209L155,209L155,218L146,218ZM164,209L173,209L173,218L164,218ZM191,209L209,209L209,218L191,218ZM218,209L236,209L236,218L218,218ZM245,209L254,209L254,218L245,218ZM263,209L272,209L272,218L263,218ZM290,209L299,209L299,218L290,218ZM20,218L65,218L65,227L20,227ZM74,218L83,218L83,227L74,227ZM92,218L146,218L146,227L92,227ZM191,218L200,218L200,227L191,227ZM218,218L245,218L245,227L218,227ZM290,218L308,218L308,227L290,227ZM11,227L20,227L20,236L11,236ZM29,227L38,227L38,236L29,236ZM65,227L83,227L83,236L65,236ZM119,227L137,227L137,236L119,236ZM155,227L182,227L182,236L155,236ZM191,227L218,227L218,236L191,236ZM227,227L308,227L308,236L227,236ZM83,236L92,236L92,245L83,245ZM119,236L128,236L128,245L119,245ZM137,236L146,236L146,245L137,245ZM164,236L182,236L182,245L164,245ZM191,236L209,236L209,245L191,245ZM227,236L236,236L236,245L227,245ZM263,236L272,236L272,245L263,245ZM11,245L74,245L74,254L11,254ZM83,245L110,245L110,254L83,254ZM119,245L137,245L137,254L119,254ZM155,245L164,245L164,254L155,254ZM182,245L191,245L191,254L182,254ZM218,245L236,245L236,254L218,254ZM245,245L254,245L254,254L245,254ZM263,245L281,245L281,254L263,254ZM290,245L299,245L299,254L290,254ZM11,254L20,254L20,263L11,263ZM65,254L74,254L74,263L65,263ZM92,254L101,254L101,263L92,263ZM119,254L128,254L128,263L119,263ZM155,254L182,254L182,263L155,263ZM191,254L218,254L218,263L191,263ZM227,254L236,254L236,263L227,263ZM263,254L272,254L272,263L263,263ZM281,254L308,254L308,263L281,263ZM11,263L20,263L20,272L11,272ZM29,263L56,263L56,272L29,272ZM65,263L74,263L74,272L65,272ZM101,263L110,263L110,272L101,272ZM137,263L146,263L146,272L137,272ZM155,263L191,263L191,272L155,272ZM200,263L209,263L209,272L200,272ZM227,263L299,263L299,272L227,272ZM11,272L20,272L20,281L11,281ZM29,272L56,272L56,281L29,281ZM65,272L74,272L74,281L65,281ZM83,272L92,272L92,281L83,281ZM101,272L110,272L110,281L101,281ZM128,272L137,272L137,281L128,281ZM155,272L164,272L164,281L155,281ZM173,272L209,272L209,281L173,281ZM227,272L272,272L272,281L227,281ZM299,272L308,272L308,281L299,281ZM11,281L20,281L20,290L11,290ZM29,281L56,281L56,290L29,290ZM65,281L74,281L74,290L65,290ZM92,281L101,281L101,290L92,290ZM119,281L128,281L128,290L119,290ZM146,281L182,281L182,290L146,290ZM191,281L209,281L209,290L191,290ZM218,281L272,281L272,290L218,290ZM299,281L308,281L308,290L299,290ZM11,290L20,290L20,299L11,299ZM65,290L74,290L74,299L65,299ZM83,290L92,290L92,299L83,299ZM101,290L110,290L110,299L101,299ZM119,290L137,290L137,299L119,299ZM182,290L218,290L218,299L182,299ZM236,290L245,290L245,299L236,299ZM254,290L263,290L263,299L254,299ZM272,290L308,290L308,299L272,299ZM11,299L74,299L74,308L11,308ZM83,299L128,299L128,308L83,308ZM137,299L146,299L146,308L137,308ZM173,299L182,299L182,308L173,308ZM191,299L200,299L200,308L191,308ZM245,299L272,299L272,308L245,308ZM290,299L299,299L299,308L290,308Z"/></svg>
