<?xml version="1.0"?>
<svg xmlns="http://www.w3.org/2000/svg" xmlns:xlink="http://www.w3.org/1999/xlink" version="1.1" width="320px" height="320px" viewBox="0 0 320 320"><rect x="0" y="0" width="320" height="320" fill="#ffffff" fill-opacity="1"/><path fill="#000000" fill-opacity="1" d="M11,11L74,11L74,20L11,20ZM92,11L101,11L101,20L92,20ZM137,11L155,11L155,20L137,20ZM182,11L218,11L218,20L182,20ZM245,11L308,11L308,20L245,20ZM11,20L20,20L20,29L11,29ZM65,20L74,20L74,29L65,29ZM83,20L101,20L101,29L83,29ZM110,20L155,20L155,29L110,29ZM164,20L173,20L173,29L164,29ZM191,20L200,20L200,29L191,29ZM227,20L236,20L236,29L227,29ZM245,20L254,20L254,29L245,29ZM299,20L308,20L308,29L299,29ZM11,29L20,29L20,38L11,38ZM29,29L56,29L56,38L29,38ZM65,29L74,29L74,38L65,38ZM92,29L119,29L119,38L92,38ZM128,29L137,29L137,38L128,38ZM146,29L236,29L236,38L146,38ZM245,29L254,29L254,38L245,38ZM263,29L290,29L290,38L263,38ZM299,29L308,29L308,38L299,38ZM11,38L20,38L20,47L11,47ZM29,38L56,38L56,47L29,47ZM65,38L74,38L74,47L65,47ZM83,38L101,38L101,47L83,47ZM110,38L119,38L119,47L110,47ZM137,38L164,38L164,47L137,47ZM173,38L182,38L182,47L173,47ZM191,38L200,38L200,47L191,47ZM245,38L254,38L254,47L245,47ZM263,38L290,38L290,47L263,47ZM299,38L308,38L308,47L299,47ZM11,47L20,47L20,56L11,56ZM29,47L56,47L56,56L29,56ZM65,47L74,47L74,56L65,56ZM101,47L110,47L110,56L101,56ZM119,47L128,47L128,56L119,56ZM182,47L191,47L191,56L182,56ZM200,47L209,47L209,56L200,56ZM218,47L236,47L236,56L218,56ZM245,47L254,47L254,56L245,56ZM263,47L290,47L290,56L263,56ZM299,47L308,47L308,56L299,56ZM11,56L20,56L20,65L11,65ZM65,56L74,56L74,65L65,65ZM83,56L92,56L92,65L83,65ZM101,56L110,56L110,65L101,65ZM128,56L146,56L146,65L128,65ZM164,56L173,56L173,65L164,65ZM182,56L191,56L191,65L182,65ZM200,56L218,56L218,65L200,65ZM227,56L236,56L236,65L227,65ZM245,56L254,56L254,65L245,65ZM299,56L308,56L308,65L299,65ZM11,65L74,65L74,74L11,74ZM83,65L92,65L92,74L83,74ZM101,65L110,65L110,74L101,74ZM119,65L128,65L128,74L119,74ZM137,65L146,65L146,74L137,74ZM155,65L164,65L164,74L155,74ZM173,65L182,65L182,74L173,74ZM191,65L200,65L200,74L191,74ZM209,65L218,65L218,74L209,74ZM227,65L236,65L236,74L227,74ZM245,65L308,65L308,74L245,74ZM119,74L128,74L128,83L119,83ZM182,74L191,74L191,83L182,83ZM200,74L209,74L209,83L200,83ZM11,83L56,83L56,92L11,92ZM65,83L110,83L110,92L65,92ZM119,83L155,83L155,92L119,92ZM191,83L200,83L200,92L191,92ZM236,83L245,83L245,92L236,92ZM254,83L263,83L263,92L254,92ZM272,83L281,83L281,92L272,92ZM290,83L299,83L299,92L290,92ZM20,92L38,92L38,101L20,101ZM47,92L65,92L65,101L47,101ZM74,92L101,92L101,101L74,101ZM137,92L164,92L164,101L137,101ZM173,92L182,92L182,101L173,101ZM200,92L209,92L209,101L200,101ZM218,92L236,92L236,101L218,101ZM254,92L272,92L272,101L254,101ZM281,92L299,92L299,101L281,101ZM11,101L29,101L29,110L11,110ZM38,101L74,101L74,110L38,110ZM83,101L101,101L101,110L83,110ZM110,101L155,101L155,110L110,110ZM164,101L173,101L173,110L164,110ZM218,101L245,101L245,110L218,110ZM254,101L263,101L263,110L254,110ZM20,110L38,110L38,119L20,119ZM47,110L65,110L65,119L47,119ZM74,110L119,110L119,119L74,119ZM128,110L137,110L137,119L128,119ZM155,110L209,110L209,119L155,119ZM218,110L236,110L236,119L218,119ZM245,110L254,110L254,119L245,119ZM272,110L281,110L281,119L272,119ZM290,110L308,110L308,119L290,119ZM47,119L83,119L83,128L47,128ZM92,119L101,119L101,128L92,128ZM110,119L119,119L119,128L110,128ZM128,119L164,119L164,128L128,128ZM173,119L182,119L182,128L173,128ZM200,119L218,119L218,128L200,128ZM227,119L236,119L236,128L227,128ZM245,119L254,119L254,128L245,128ZM263,119L290,119L290,128L263,128ZM20,128L38,128L38,137L20,137ZM47,128L65,128L65,137L47,137ZM83,128L110,128L110,137L83,137ZM119,128L128,128L128,137L119,137ZM137,128L164,128L164,137L137,137ZM173,128L227,128L227,137L173,137ZM236,128L245,128L245,137L236,137ZM254,128L299,128L299,137L254,137ZM11,137L38,137L38,146L11,146ZM47,137L56,137L56,146L47,146ZM65,137L74,137L74,146L65,146ZM92,137L101,137L101,146L92,146ZM128,137L155,137L155,146L128,146ZM164,137L182,137L182,146L164,146ZM191,137L200,137L200,146L191,146ZM227,137L245,137L245,146L227,146ZM254,137L272,137L272,146L254,146ZM281,137L290,137L290,146L281,146ZM20,146L56,146L56,155L20,155ZM83,146L101,146L101,155L83,155ZM119,146L128,146L128,155L119,155ZM137,146L146,146L146,155L137,155ZM155,146L227,146L227,155L155,155ZM236,146L263,146L263,155L236,155ZM272,146L308,146L308,155L272,155ZM29,155L38,155L38,164L29,164ZM65,155L74,155L74,164L65,164ZM119,155L137,155L137,164L119,164ZM146,155L155,155L155,164L146,164ZM164,155L182,155L182,164L164,164ZM191,155L200,155L200,164L191,164ZM254,155L290,155L290,164L254,164ZM11,164L20,164L20,173L11,173ZM47,164L65,164L65,173L47,173ZM74,164L92,164L92,173L74,173ZM101,164L110,164L110,173L101,173ZM155,164L164,164L164,173L155,173ZM200,164L209,164L209,173L200,173ZM218,164L227,164L227,173L218,173ZM236,164L263,164L263,173L236,173ZM272,164L308,164L308,173L272,173ZM29,173L47,173L47,182L29,182ZM65,173L83,173L83,182L65,182ZM92,173L101,173L101,182L92,182ZM110,173L146,173L146,182L110,182ZM164,173L173,173L173,182L164,182ZM200,173L245,173L245,182L200,182ZM263,173L281,173L281,182L263,182ZM11,182L20,182L20,191L11,191ZM29,182L38,182L38,191L29,191ZM56,182L65,182L65,191L56,191ZM83,182L101,182L101,191L83,191ZM110,182L119,182L119,191L110,191ZM128,182L137,182L137,191L128,191ZM155,182L209,182L209,191L155,191ZM218,182L227,182L227,191L218,191ZM236,182L254,182L254,191L236,191ZM290,182L308,182L308,191L290,191ZM11,191L47,191L47,200L11,200ZM56,191L74,191L74,200L56,200ZM83,191L92,191L92,200L83,200ZM110,191L119,191L119,200L110,200ZM146,191L164,191L164,200L146,200ZM236,191L245,191L245,200L236,200ZM263,191L272,191L272,200L263,200ZM281,191L290,191L290,200L281,200ZM11,200L38,200L38,209L11,209ZM47,200L56,200L56,209L47,209ZM119,200L128,200L128,209L119,209ZM137,200L155,200L155,209L137,209ZM182,200L191,200L191,209L182,209ZM200,200L209,200L209,209L200,209ZM218,200L236,200L236,209L218,209ZM263,200L290,200L290,209L263,209ZM299,200L308,200L308,209L299,209ZM11,209L20,209L20,218L11,218ZM56,209L74,209L74,218L56,218ZM92,209L101,209L101,218L92,218ZM128,209L146,209L146,218L128,218ZM164,209L173,209L173,218L164,218ZM182,209L191,209L191,218L182,218ZM218,209L245,209L245,218L218,218ZM254,209L272,209L272,218L254,218ZM11,218L20,218L20,227L11,227ZM47,218L56,218L56,227L47,227ZM83,218L92,218L92,227L83,227ZM101,218L110,218L110,227L101,227ZM119,218L128,218L128,227L119,227ZM137,218L146,218L146,227L137,227ZM155,218L164,218L164,227L155,227ZM173,218L182,218L182,227L173,227ZM191,218L200,218L200,227L191,227ZM218,218L236,218L236,227L218,227ZM245,218L254,218L254,227L245,227ZM281,218L290,218L290,227L281,227ZM11,227L20,227L20,236L11,236ZM29,227L38,227L38,236L29,236ZM56,227L83,227L83,236L56,236ZM101,227L110,227L110,236L101,236ZM119,227L128,227L128,236L119,236ZM137,227L164,227L164,236L137,236ZM173,227L182,227L182,236L173,236ZM191,227L200,227L200,236L191,236ZM227,227L299,227L299,236L227,236ZM83,236L92,236L92,245L83,245ZM101,236L110,236L110,245L101,245ZM146,236L155,236L155,245L146,245ZM182,236L191,236L191,245L182,245ZM200,236L236,236L236,245L200,245ZM263,236L290,236L290,245L263,245ZM11,245L74,245L74,254L11,254ZM83,245L101,245L101,254L83,254ZM110,245L155,245L155,254L110,254ZM164,245L173,245L173,254L164,254ZM182,245L191,245L191,254L182,254ZM209,245L218,245L218,254L209,254ZM227,245L236,245L236,254L227,254ZM245,245L254,245L254,254L245,254ZM263,245L272,245L272,254L263,254ZM290,245L299,245L299,254L290,254ZM11,254L20,254L20,263L11,263ZM65,254L74,254L74,263L65,263ZM92,254L101,254L101,263L92,263ZM110,254L119,254L119,263L110,263ZM128,254L137,254L137,263L128,263ZM155,254L191,254L191,263L155,263ZM200,254L209,254L209,263L200,263ZM227,254L236,254L236,263L227,263ZM263,254L281,254L281,263L263,263ZM299,254L308,254L308,263L299,263ZM11,263L20,263L20,272L11,272ZM29,263L56,263L56,272L29,272ZM65,263L74,263L74,272L65,272ZM83,263L128,263L128,272L83,272ZM146,263L155,263L155,272L146,272ZM173,263L182,263L182,272L173,272ZM200,263L209,263L209,272L200,272ZM218,263L290,263L290,272L218,272ZM299,263L308,263L308,272L299,272ZM11,272L20,272L20,281L11,281ZM29,272L56,272L56,281L29,281ZM65,272L74,272L74,281L65,281ZM83,272L110,272L110,281L83,281ZM119,272L128,272L128,281L119,281ZM146,272L164,272L164,281L146,281ZM191,272L227,272L227,281L191,281ZM236,272L272,272L272,281L236,281ZM281,272L299,272L299,281L281,281ZM11,281L20,281L20,290L11,290ZM29,281L56,281L56,290L29,290ZM65,281L74,281L74,290L65,290ZM83,281L92,281L92,290L83,290ZM101,281L110,281L110,290L101,290ZM119,281L173,281L173,290L119,290ZM209,281L254,281L254,290L209,290ZM11,290L20,290L20,299L11,299ZM65,290L74,290L74,299L65,299ZM83,290L110,290L110,299L83,299ZM119,290L137,290L137,299L119,299ZM155,290L200,290L200,299L155,299ZM236,290L245,290L245,299L236,299ZM254,290L272,290L272,299L254,299ZM290,290L308,290L308,299L290,299ZM11,299L74,299L74,308L11,308ZM83,299L101,299L101,308L83,308ZM137,299L155,299L155,308L137,308ZM164,299L173,299L173,308L164,308ZM209,299L218,299L218,308L209,308ZM227,299L254,299L254,308L227,308ZM272,299L281,299L281,308L272,308ZM290,299L299,299L299,308L290,308Z"/></svg>
