<?xml version="1.0"?>
<svg xmlns="http://www.w3.org/2000/svg" xmlns:xlink="http://www.w3.org/1999/xlink" version="1.1" width="320px" height="320px" viewBox="0 0 320 320"><rect x="0" y="0" width="320" height="320" fill="#ffffff" fill-opacity="1"/><path fill="#000000" fill-opacity="1" d="M10,10L94,10L94,22L10,22ZM118,10L130,10L130,22L118,22ZM190,10L202,10L202,22L190,22ZM226,10L310,10L310,22L226,22ZM10,22L22,22L22,34L10,34ZM82,22L94,22L94,34L82,34ZM106,22L130,22L130,34L106,34ZM142,22L166,22L166,34L142,34ZM202,22L214,22L214,34L202,34ZM226,22L238,22L238,34L226,34ZM298,22L310,22L310,34L298,34ZM10,34L22,34L22,46L10,46ZM34,34L70,34L70,46L34,46ZM82,34L94,34L94,46L82,46ZM118,34L154,34L154,46L118,46ZM226,34L238,34L238,46L226,46ZM250,34L286,34L286,46L250,46ZM298,34L310,34L310,46L298,46ZM10,46L22,46L22,58L10,58ZM34,46L70,46L70,58L34,58ZM82,46L94,46L94,58L82,58ZM106,46L130,46L130,58L106,58ZM142,46L154,46L154,58L142,58ZM190,46L202,46L202,58L190,58ZM226,46L238,46L238,58L226,58ZM250,46L286,46L286,58L250,58ZM298,46L310,46L310,58L298,58ZM10,58L22,58L22,70L10,70ZM34,58L70,58L70,70L34,70ZM82,58L94,58L94,70L82,70ZM130,58L142,58L142,70L130,70ZM154,58L178,58L178,70L154,70ZM190,58L214,58L214,70L190,70ZM226,58L238,58L238,70L226,70ZM250,58L286,58L286,70L250,70ZM298,58L310,58L310,70L298,70ZM10,70L22,70L22,82L10,82ZM82,70L94,70L94,82L82,82ZM106,70L118,70L118,82L106,82ZM130,70L142,70L142,82L130,82ZM166,70L214,70L214,82L166,82ZM226,70L238,70L238,82L226,82ZM298,70L310,70L310,82L298,82ZM10,82L94,82L94,94L10,94ZM106,82L118,82L118,94L106,94ZM130,82L142,82L142,94L130,94ZM154,82L166,82L166,94L154,94ZM178,82L190,82L190,94L178,94ZM202,82L214,82L214,94L202,94ZM226,82L310,82L310,94L226,94ZM154,94L178,94L178,106L154,106ZM10,106L70,106L70,118L10,118ZM82,106L142,106L142,118L82,118ZM154,106L166,106L166,118L154,118ZM178,106L226,106L226,118L178,118ZM238,106L250,106L250,118L238,118ZM262,106L274,106L274,118L262,118ZM286,106L298,106L298,118L286,118ZM22,118L46,118L46,130L22,130ZM106,118L130,118L130,130L106,130ZM190,118L202,118L202,130L190,130ZM214,118L274,118L274,130L214,130ZM10,130L34,130L34,142L10,142ZM46,130L58,130L58,142L46,142ZM70,130L94,130L94,142L70,142ZM118,130L130,130L130,142L118,142ZM142,130L166,130L166,142L142,142ZM190,130L214,130L214,142L190,142ZM226,130L238,130L238,142L226,142ZM250,130L262,130L262,142L250,142ZM274,130L286,130L286,142L274,142ZM298,130L310,130L310,142L298,142ZM10,142L70,142L70,154L10,154ZM94,142L154,142L154,154L94,154ZM178,142L190,142L190,154L178,154ZM238,142L250,142L250,154L238,154ZM286,142L298,142L298,154L286,154ZM58,154L130,154L130,166L58,166ZM142,154L154,154L154,166L142,166ZM190,154L214,154L214,166L190,166ZM238,154L250,154L250,166L238,166ZM298,154L310,154L310,166L298,166ZM10,166L22,166L22,178L10,178ZM58,166L70,166L70,178L58,178ZM94,166L142,166L142,178L94,178ZM154,166L190,166L190,178L154,178ZM214,166L226,166L226,178L214,178ZM262,166L274,166L274,178L262,178ZM298,166L310,166L310,178L298,178ZM10,178L22,178L22,190L10,190ZM46,178L118,178L118,190L46,190ZM130,178L142,178L142,190L130,190ZM166,178L190,178L190,190L166,190ZM214,178L238,178L238,190L214,190ZM250,178L262,178L262,190L250,190ZM274,178L286,178L286,190L274,190ZM298,178L310,178L310,190L298,190ZM10,190L22,190L22,202L10,202ZM58,190L70,190L70,202L58,202ZM106,190L118,190L118,202L106,202ZM130,190L142,190L142,202L130,202ZM154,190L178,190L178,202L154,202ZM238,190L250,190L250,202L238,202ZM262,190L274,190L274,202L262,202ZM286,190L310,190L310,202L286,202ZM10,202L22,202L22,214L10,214ZM34,202L58,202L58,214L34,214ZM70,202L94,202L94,214L70,214ZM106,202L118,202L118,214L106,214ZM130,202L142,202L142,214L130,214ZM154,202L166,202L166,214L154,214ZM178,202L262,202L262,214L178,214ZM274,202L286,202L286,214L274,214ZM298,202L310,202L310,214L298,214ZM106,214L130,214L130,226L106,226ZM190,214L214,214L214,226L190,226ZM250,214L274,214L274,226L250,226ZM298,214L310,214L310,226L298,226ZM10,226L94,226L94,238L10,238ZM106,226L118,226L118,238L106,238ZM142,226L166,226L166,238L142,238ZM202,226L214,226L214,238L202,238ZM226,226L238,226L238,238L226,238ZM250,226L310,226L310,238L250,238ZM10,238L22,238L22,250L10,250ZM82,238L94,238L94,250L82,250ZM118,238L130,238L130,250L118,250ZM142,238L154,238L154,250L142,250ZM178,238L214,238L214,250L178,250ZM250,238L262,238L262,250L250,250ZM274,238L286,238L286,250L274,250ZM10,250L22,250L22,262L10,262ZM34,250L70,250L70,262L34,262ZM82,250L94,250L94,262L82,262ZM106,250L130,250L130,262L106,262ZM142,250L154,250L154,262L142,262ZM190,250L262,250L262,262L190,262ZM10,262L22,262L22,274L10,274ZM34,262L70,262L70,274L34,274ZM82,262L94,262L94,274L82,274ZM106,262L130,262L130,274L106,274ZM154,262L190,262L190,274L154,274ZM202,262L238,262L238,274L202,274ZM286,262L310,262L310,274L286,274ZM10,274L22,274L22,286L10,286ZM34,274L70,274L70,286L34,286ZM82,274L94,274L94,286L82,286ZM106,274L118,274L118,286L106,286ZM166,274L190,274L190,286L166,286ZM250,274L274,274L274,286L250,286ZM298,274L310,274L310,286L298,286ZM10,286L22,286L22,298L10,298ZM82,286L94,286L94,298L82,298ZM106,286L130,286L130,298L106,298ZM154,286L178,286L178,298L154,298ZM202,286L262,286L262,298L202,298ZM286,286L298,286L298,298L286,298ZM10,298L94,298L94,310L10,310ZM106,298L130,298L130,310L106,310ZM154,298L166,298L166,310L154,310ZM178,298L190,298L190,310L178,310ZM202,298L214,298L214,310L202,310ZM238,298L250,298L250,310L238,310ZM286,298L310,298L310,310L286,310Z"/></svg>
