<?xml version="1.0"?>
<svg xmlns="http://www.w3.org/2000/svg" xmlns:xlink="http://www.w3.org/1999/xlink" version="1.1" width="320px" height="320px" viewBox="0 0 320 320"><rect x="0" y="0" width="320" height="320" fill="#ffffff" fill-opacity="1"/><path fill="#000000" fill-opacity="1" d="M10,10L94,10L94,22L10,22ZM106,10L118,10L118,22L106,22ZM166,10L190,10L190,22L166,22ZM226,10L310,10L310,22L226,22ZM10,22L22,22L22,34L10,34ZM82,22L94,22L94,34L82,34ZM106,22L118,22L118,34L106,34ZM142,22L214,22L214,34L142,34ZM226,22L238,22L238,34L226,34ZM298,22L310,22L310,34L298,34ZM10,34L22,34L22,46L10,46ZM34,34L70,34L70,46L34,46ZM82,34L94,34L94,46L82,46ZM106,34L130,34L130,46L106,46ZM154,34L166,34L166,46L154,46ZM202,34L214,34L214,46L202,46ZM226,34L238,34L238,46L226,46ZM250,34L286,34L286,46L250,46ZM298,34L310,34L310,46L298,46ZM10,46L22,46L22,58L10,58ZM34,46L70,46L70,58L34,58ZM82,46L94,46L94,58L82,58ZM106,46L142,46L142,58L106,58ZM154,46L166,46L166,58L154,58ZM190,46L214,46L214,58L190,58ZM226,46L238,46L238,58L226,58ZM250,46L286,46L286,58L250,58ZM298,46L310,46L310,58L298,58ZM10,58L22,58L22,70L10,70ZM34,58L70,58L70,70L34,70ZM82,58L94,58L94,70L82,70ZM118,58L142,58L142,70L118,70ZM154,58L166,58L166,70L154,70ZM178,58L190,58L190,70L178,70ZM202,58L214,58L214,70L202,70ZM226,58L238,58L238,70L226,70ZM250,58L286,58L286,70L250,70ZM298,58L310,58L310,70L298,70ZM10,70L22,70L22,82L10,82ZM82,70L94,70L94,82L82,82ZM106,70L142,70L142,82L106,82ZM202,70L214,70L214,82L202,82ZM226,70L238,70L238,82L226,82ZM298,70L310,70L310,82L298,82ZM10,82L94,82L94,94L10,94ZM106,82L118,82L118,94L106,94ZM130,82L142,82L142,94L130,94ZM154,82L166,82L166,94L154,94ZM178,82L190,82L190,94L178,94ZM202,82L214,82L214,94L202,94ZM226,82L310,82L310,94L226,94ZM130,94L154,94L154,106L130,106ZM166,94L178,94L178,106L166,106ZM202,94L214,94L214,106L202,106ZM10,106L34,106L34,118L10,118ZM58,106L94,106L94,118L58,118ZM130,106L142,106L142,118L130,118ZM154,106L178,106L178,118L154,118ZM202,106L214,106L214,118L202,118ZM238,106L250,106L250,118L238,118ZM262,106L310,106L310,118L262,118ZM22,118L34,118L34,130L22,130ZM58,118L82,118L82,130L58,130ZM94,118L106,118L106,130L94,130ZM166,118L190,118L190,130L166,130ZM214,118L238,118L238,130L214,130ZM22,130L70,130L70,142L22,142ZM82,130L94,130L94,142L82,142ZM106,130L142,130L142,142L106,142ZM190,130L202,130L202,142L190,142ZM214,130L226,130L226,142L214,142ZM250,130L262,130L262,142L250,142ZM286,130L298,130L298,142L286,142ZM10,142L22,142L22,154L10,154ZM34,142L46,142L46,154L34,154ZM106,142L130,142L130,154L106,154ZM154,142L166,142L166,154L154,154ZM178,142L190,142L190,154L178,154ZM202,142L250,142L250,154L202,154ZM262,142L274,142L274,154L262,154ZM298,142L310,142L310,154L298,154ZM10,154L22,154L22,166L10,166ZM34,154L70,154L70,166L34,166ZM82,154L106,154L106,166L82,166ZM142,154L154,154L154,166L142,166ZM166,154L190,154L190,166L166,166ZM202,154L214,154L214,166L202,166ZM250,154L262,154L262,166L250,166ZM298,154L310,154L310,166L298,166ZM10,166L22,166L22,178L10,178ZM58,166L70,166L70,178L58,178ZM130,166L142,166L142,178L130,178ZM154,166L166,166L166,178L154,178ZM190,166L202,166L202,178L190,178ZM214,166L226,166L226,178L214,178ZM238,166L262,166L262,178L238,178ZM298,166L310,166L310,178L298,178ZM34,178L58,178L58,190L34,190ZM70,178L94,178L94,190L70,190ZM130,178L190,178L190,190L130,190ZM202,178L214,178L214,190L202,190ZM250,178L262,178L262,190L250,190ZM286,178L298,178L298,190L286,190ZM34,190L82,190L82,202L34,202ZM130,190L154,190L154,202L130,202ZM166,190L178,190L178,202L166,202ZM202,190L250,190L250,202L202,202ZM262,190L286,190L286,202L262,202ZM10,202L34,202L34,214L10,214ZM82,202L118,202L118,214L82,214ZM130,202L142,202L142,214L130,214ZM154,202L178,202L178,214L154,214ZM202,202L262,202L262,214L202,214ZM274,202L286,202L286,214L274,214ZM298,202L310,202L310,214L298,214ZM106,214L118,214L118,226L106,226ZM166,214L190,214L190,226L166,226ZM202,214L214,214L214,226L202,226ZM250,214L262,214L262,226L250,226ZM298,214L310,214L310,226L298,226ZM10,226L94,226L94,238L10,238ZM202,226L214,226L214,238L202,238ZM226,226L238,226L238,238L226,238ZM250,226L274,226L274,238L250,238ZM10,238L22,238L22,250L10,250ZM82,238L94,238L94,250L82,250ZM106,238L118,238L118,250L106,250ZM130,238L142,238L142,250L130,250ZM154,238L166,238L166,250L154,250ZM178,238L214,238L214,250L178,250ZM250,238L262,238L262,250L250,250ZM286,238L310,238L310,250L286,250ZM10,250L22,250L22,262L10,262ZM34,250L70,250L70,262L34,262ZM82,250L94,250L94,262L82,262ZM106,250L118,250L118,262L106,262ZM142,250L154,250L154,262L142,262ZM166,250L190,250L190,262L166,262ZM202,250L274,250L274,262L202,262ZM10,262L22,262L22,274L10,274ZM34,262L70,262L70,274L34,274ZM82,262L94,262L94,274L82,274ZM154,262L166,262L166,274L154,274ZM190,262L274,262L274,274L190,274ZM286,262L310,262L310,274L286,274ZM10,274L22,274L22,286L10,286ZM34,274L70,274L70,286L34,286ZM82,274L94,274L94,286L82,286ZM130,274L190,274L190,286L130,286ZM202,274L238,274L238,286L202,286ZM250,274L298,274L298,286L250,286ZM10,286L22,286L22,298L10,298ZM82,286L94,286L94,298L82,298ZM106,286L118,286L118,298L106,298ZM142,286L154,286L154,298L142,298ZM166,286L178,286L178,298L166,298ZM238,286L262,286L262,298L238,298ZM274,286L286,286L286,298L274,298ZM298,286L310,286L310,298L298,298ZM10,298L94,298L94,310L10,310ZM106,298L130,298L130,310L106,310ZM154,298L178,298L178,310L154,310ZM190,298L214,298L214,310L190,310ZM250,298L274,298L274,310L250,310ZM286,298L310,298L310,310L286,310Z"/></svg>
