<?xml version="1.0"?>
<svg xmlns="http://www.w3.org/2000/svg" xmlns:xlink="http://www.w3.org/1999/xlink" version="1.1" width="320px" height="320px" viewBox="0 0 320 320"><rect x="0" y="0" width="320" height="320" fill="#ffffff" fill-opacity="1"/><path fill="#000000" fill-opacity="1" d="M10,10L94,10L94,22L10,22ZM118,10L154,10L154,22L118,22ZM166,10L178,10L178,22L166,22ZM190,10L214,10L214,22L190,22ZM226,10L310,10L310,22L226,22ZM10,22L22,22L22,34L10,34ZM82,22L94,22L94,34L82,34ZM142,22L166,22L166,34L142,34ZM190,22L214,22L214,34L190,34ZM226,22L238,22L238,34L226,34ZM298,22L310,22L310,34L298,34ZM10,34L22,34L22,46L10,46ZM34,34L70,34L70,46L34,46ZM82,34L94,34L94,46L82,46ZM118,34L154,34L154,46L118,46ZM226,34L238,34L238,46L226,46ZM250,34L286,34L286,46L250,46ZM298,34L310,34L310,46L298,46ZM10,46L22,46L22,58L10,58ZM34,46L70,46L70,58L34,58ZM82,46L94,46L94,58L82,58ZM106,46L118,46L118,58L106,58ZM130,46L154,46L154,58L130,58ZM178,46L190,46L190,58L178,58ZM202,46L214,46L214,58L202,58ZM226,46L238,46L238,58L226,58ZM250,46L286,46L286,58L250,58ZM298,46L310,46L310,58L298,58ZM10,58L22,58L22,70L10,70ZM34,58L70,58L70,70L34,70ZM82,58L94,58L94,70L82,70ZM106,58L118,58L118,70L106,70ZM130,58L142,58L142,70L130,70ZM154,58L178,58L178,70L154,70ZM190,58L214,58L214,70L190,70ZM226,58L238,58L238,70L226,70ZM250,58L286,58L286,70L250,70ZM298,58L310,58L310,70L298,70ZM10,70L22,70L22,82L10,82ZM82,70L94,70L94,82L82,82ZM118,70L142,70L142,82L118,82ZM166,70L190,70L190,82L166,82ZM202,70L214,70L214,82L202,82ZM226,70L238,70L238,82L226,82ZM298,70L310,70L310,82L298,82ZM10,82L94,82L94,94L10,94ZM106,82L118,82L118,94L106,94ZM130,82L142,82L142,94L130,94ZM154,82L166,82L166,94L154,94ZM178,82L190,82L190,94L178,94ZM202,82L214,82L214,94L202,94ZM226,82L310,82L310,94L226,94ZM118,94L130,94L130,106L118,106ZM154,94L178,94L178,106L154,106ZM190,94L202,94L202,106L190,106ZM10,106L34,106L34,118L10,118ZM70,106L106,106L106,118L70,118ZM118,106L142,106L142,118L118,118ZM154,106L166,106L166,118L154,118ZM178,106L214,106L214,118L178,118ZM250,106L274,106L274,118L250,118ZM10,118L22,118L22,130L10,130ZM34,118L58,118L58,130L34,130ZM94,118L106,118L106,130L94,130ZM130,118L142,118L142,130L130,130ZM178,118L190,118L190,130L178,130ZM202,118L250,118L250,130L202,130ZM274,118L286,118L286,130L274,130ZM58,130L70,130L70,142L58,142ZM82,130L94,130L94,142L82,142ZM106,130L130,130L130,142L106,142ZM142,130L166,130L166,142L142,142ZM190,130L214,130L214,142L190,142ZM226,130L238,130L238,142L226,142ZM250,130L262,130L262,142L250,142ZM274,130L286,130L286,142L274,142ZM298,130L310,130L310,142L298,142ZM46,142L58,142L58,154L46,154ZM130,142L154,142L154,154L130,154ZM178,142L202,142L202,154L178,154ZM238,142L250,142L250,154L238,154ZM262,142L274,142L274,154L262,154ZM286,142L298,142L298,154L286,154ZM46,154L58,154L58,166L46,166ZM82,154L94,154L94,166L82,166ZM106,154L142,154L142,166L106,166ZM166,154L202,154L202,166L166,166ZM214,154L226,154L226,166L214,166ZM250,154L274,154L274,166L250,166ZM286,154L310,154L310,166L286,166ZM10,166L34,166L34,178L10,178ZM46,166L70,166L70,178L46,178ZM118,166L142,166L142,178L118,178ZM154,166L202,166L202,178L154,178ZM214,166L226,166L226,178L214,178ZM298,166L310,166L310,178L298,178ZM10,178L22,178L22,190L10,190ZM34,178L58,178L58,190L34,190ZM70,178L106,178L106,190L70,190ZM118,178L142,178L142,190L118,190ZM166,178L190,178L190,190L166,190ZM214,178L238,178L238,190L214,190ZM250,178L262,178L262,190L250,190ZM274,178L286,178L286,190L274,190ZM298,178L310,178L310,190L298,190ZM10,190L22,190L22,202L10,202ZM34,190L46,190L46,202L34,202ZM58,190L82,190L82,202L58,202ZM94,190L130,190L130,202L94,202ZM154,190L214,190L214,202L154,202ZM238,190L310,190L310,202L238,202ZM10,202L22,202L22,214L10,214ZM46,202L58,202L58,214L46,214ZM70,202L118,202L118,214L70,214ZM154,202L166,202L166,214L154,214ZM178,202L262,202L262,214L178,214ZM274,202L286,202L286,214L274,214ZM298,202L310,202L310,214L298,214ZM106,214L118,214L118,226L106,226ZM130,214L142,214L142,226L130,226ZM202,214L214,214L214,226L202,226ZM250,214L262,214L262,226L250,226ZM298,214L310,214L310,226L298,226ZM10,226L94,226L94,238L10,238ZM106,226L130,226L130,238L106,238ZM154,226L190,226L190,238L154,238ZM202,226L214,226L214,238L202,238ZM226,226L238,226L238,238L226,238ZM250,226L274,226L274,238L250,238ZM298,226L310,226L310,238L298,238ZM10,238L22,238L22,250L10,250ZM82,238L94,238L94,250L82,250ZM106,238L118,238L118,250L106,250ZM142,238L154,238L154,250L142,250ZM178,238L190,238L190,250L178,250ZM202,238L214,238L214,250L202,250ZM250,238L286,238L286,250L250,250ZM10,250L22,250L22,262L10,262ZM34,250L70,250L70,262L34,262ZM82,250L94,250L94,262L82,262ZM118,250L154,250L154,262L118,262ZM190,250L262,250L262,262L190,262ZM10,262L22,262L22,274L10,274ZM34,262L70,262L70,274L34,274ZM82,262L94,262L94,274L82,274ZM154,262L178,262L178,274L154,274ZM190,262L202,262L202,274L190,274ZM214,262L238,262L238,274L214,274ZM250,262L310,262L310,274L250,274ZM10,274L22,274L22,286L10,286ZM34,274L70,274L70,286L34,286ZM82,274L94,274L94,286L82,286ZM130,274L142,274L142,286L130,286ZM166,274L190,274L190,286L166,286ZM250,274L274,274L274,286L250,286ZM298,274L310,274L310,286L298,286ZM10,286L22,286L22,298L10,298ZM82,286L94,286L94,298L82,298ZM106,286L118,286L118,298L106,298ZM130,286L142,286L142,298L130,298ZM154,286L178,286L178,298L154,298ZM190,286L274,286L274,298L190,298ZM286,286L298,286L298,298L286,298ZM10,298L94,298L94,310L10,310ZM106,298L130,298L130,310L106,310ZM142,298L178,298L178,310L142,310ZM214,298L226,298L226,310L214,310ZM250,298L262,298L262,310L250,310ZM274,298L286,298L286,310L274,310ZM298,298L310,298L310,310L298,310Z"/></svg>
