<?xml version="1.0"?>
<svg xmlns="http://www.w3.org/2000/svg" xmlns:xlink="http://www.w3.org/1999/xlink" version="1.1" width="320px" height="320px" viewBox="0 0 320 320"><rect x="0" y="0" width="320" height="320" fill="#ffffff" fill-opacity="1"/><path fill="#000000" fill-opacity="1" d="M15,15L85,15L85,25L15,25ZM95,15L105,15L105,25L95,25ZM115,15L125,15L125,25L115,25ZM135,15L175,15L175,25L135,25ZM215,15L225,15L225,25L215,25ZM235,15L305,15L305,25L235,25ZM15,25L25,25L25,35L15,35ZM75,25L85,25L85,35L75,35ZM105,25L155,25L155,35L105,35ZM175,25L185,25L185,35L175,35ZM195,25L205,25L205,35L195,35ZM215,25L225,25L225,35L215,35ZM235,25L245,25L245,35L235,35ZM295,25L305,25L305,35L295,35ZM15,35L25,35L25,45L15,45ZM35,35L65,35L65,45L35,45ZM75,35L85,35L85,45L75,45ZM95,35L125,35L125,45L95,45ZM175,35L185,35L185,45L175,45ZM215,35L225,35L225,45L215,45ZM235,35L245,35L245,45L235,45ZM255,35L285,35L285,45L255,45ZM295,35L305,35L305,45L295,45ZM15,45L25,45L25,55L15,55ZM35,45L65,45L65,55L35,55ZM75,45L85,45L85,55L75,55ZM95,45L125,45L125,55L95,55ZM135,45L145,45L145,55L135,55ZM155,45L175,45L175,55L155,55ZM235,45L245,45L245,55L235,55ZM255,45L285,45L285,55L255,55ZM295,45L305,45L305,55L295,55ZM15,55L25,55L25,65L15,65ZM35,55L65,55L65,65L35,65ZM75,55L85,55L85,65L75,65ZM95,55L105,55L105,65L95,65ZM125,55L145,55L145,65L125,65ZM155,55L165,55L165,65L155,65ZM175,55L195,55L195,65L175,65ZM235,55L245,55L245,65L235,65ZM255,55L285,55L285,65L255,65ZM295,55L305,55L305,65L295,65ZM15,65L25,65L25,75L15,75ZM75,65L85,65L85,75L75,75ZM115,65L135,65L135,75L115,75ZM145,65L155,65L155,75L145,75ZM165,65L205,65L205,75L165,75ZM235,65L245,65L245,75L235,75ZM295,65L305,65L305,75L295,75ZM15,75L85,75L85,85L15,85ZM95,75L105,75L105,85L95,85ZM115,75L125,75L125,85L115,85ZM135,75L145,75L145,85L135,85ZM155,75L165,75L165,85L155,85ZM175,75L185,75L185,85L175,85ZM195,75L205,75L205,85L195,85ZM215,75L225,75L225,85L215,85ZM235,75L305,75L305,85L235,85ZM115,85L125,85L125,95L115,95ZM135,85L145,85L145,95L135,95ZM165,85L195,85L195,95L165,95ZM205,85L215,85L215,95L205,95ZM15,95L55,95L55,105L15,105ZM75,95L85,95L85,105L75,105ZM95,95L105,95L105,105L95,105ZM115,95L155,95L155,105L115,105ZM165,95L235,95L235,105L165,105ZM255,95L285,95L285,105L255,105ZM295,95L305,95L305,105L295,105ZM15,105L75,105L75,115L15,115ZM115,105L125,105L125,115L115,115ZM135,105L175,105L175,115L135,115ZM205,105L225,105L225,115L205,115ZM235,105L255,105L255,115L235,115ZM285,105L295,105L295,115L285,115ZM15,115L45,115L45,125L15,125ZM55,115L65,115L65,125L55,125ZM75,115L95,115L95,125L75,125ZM105,115L155,115L155,125L105,125ZM195,115L205,115L205,125L195,125ZM225,115L235,115L235,125L225,125ZM245,115L275,115L275,125L245,125ZM25,125L35,125L35,135L25,135ZM65,125L75,125L75,135L65,135ZM85,125L125,125L125,135L85,135ZM175,125L195,125L195,135L175,135ZM215,125L235,125L235,135L215,135ZM245,125L255,125L255,135L245,135ZM265,125L295,125L295,135L265,135ZM15,135L35,135L35,145L15,145ZM45,135L65,135L65,145L45,145ZM75,135L125,135L125,145L75,145ZM135,135L145,135L145,145L135,145ZM155,135L185,135L185,145L155,145ZM195,135L205,135L205,145L195,145ZM215,135L235,135L235,145L215,145ZM265,135L275,135L275,145L265,145ZM285,135L295,135L295,145L285,145ZM25,145L35,145L35,155L25,155ZM45,145L65,145L65,155L45,155ZM125,145L145,145L145,155L125,155ZM155,145L175,145L175,155L155,155ZM185,145L215,145L215,155L185,155ZM235,145L245,145L245,155L235,155ZM275,145L305,145L305,155L275,155ZM15,155L35,155L35,165L15,165ZM55,155L65,155L65,165L55,165ZM75,155L95,155L95,165L75,165ZM105,155L115,155L115,165L105,165ZM125,155L135,155L135,165L125,165ZM145,155L155,155L155,165L145,165ZM185,155L205,155L205,165L185,165ZM235,155L245,155L245,165L235,165ZM255,155L285,155L285,165L255,165ZM295,155L305,155L305,165L295,165ZM25,165L35,165L35,175L25,175ZM55,165L75,165L75,175L55,175ZM85,165L135,165L135,175L85,175ZM155,165L165,165L165,175L155,175ZM175,165L285,165L285,175L175,175ZM295,165L305,165L305,175L295,175ZM15,175L65,175L65,185L15,185ZM75,175L105,175L105,185L75,185ZM115,175L125,175L125,185L115,185ZM135,175L145,175L145,185L135,185ZM155,175L165,175L165,185L155,185ZM195,175L205,175L205,185L195,185ZM215,175L225,175L225,185L215,185ZM235,175L245,175L245,185L235,185ZM255,175L285,175L285,185L255,185ZM35,185L45,185L45,195L35,195ZM55,185L65,185L65,195L55,195ZM85,185L95,185L95,195L85,195ZM155,185L165,185L165,195L155,195ZM215,185L235,185L235,195L215,195ZM255,185L265,185L265,195L255,195ZM295,185L305,185L305,195L295,195ZM15,195L25,195L25,205L15,205ZM45,195L55,195L55,205L45,205ZM65,195L95,195L95,205L65,205ZM105,195L125,195L125,205L105,205ZM145,195L195,195L195,205L145,205ZM205,195L215,195L215,205L205,205ZM285,195L295,195L295,205L285,205ZM45,205L55,205L55,215L45,215ZM65,205L75,205L75,215L65,215ZM95,205L105,205L105,215L95,215ZM115,205L135,205L135,215L115,215ZM145,205L195,205L195,215L145,215ZM205,205L215,205L215,215L205,215ZM245,205L255,205L255,215L245,215ZM265,205L285,205L285,215L265,215ZM295,205L305,205L305,215L295,215ZM25,215L45,215L45,225L25,225ZM55,215L65,215L65,225L55,225ZM75,215L105,215L105,225L75,225ZM145,215L165,215L165,225L145,225ZM185,215L265,215L265,225L185,225ZM295,215L305,215L305,225L295,225ZM95,225L105,225L105,235L95,235ZM115,225L125,225L125,235L115,235ZM205,225L225,225L225,235L205,235ZM255,225L275,225L275,235L255,235ZM285,225L295,225L295,235L285,235ZM15,235L85,235L85,245L15,245ZM105,235L115,235L115,245L105,245ZM155,235L165,235L165,245L155,245ZM205,235L225,235L225,245L205,245ZM235,235L245,235L245,245L235,245ZM255,235L275,235L275,245L255,245ZM285,235L295,235L295,245L285,245ZM15,245L25,245L25,255L15,255ZM75,245L85,245L85,255L75,255ZM125,245L175,245L175,255L125,255ZM185,245L195,245L195,255L185,255ZM205,245L225,245L225,255L205,255ZM255,245L285,245L285,255L255,255ZM15,255L25,255L25,265L15,265ZM35,255L65,255L65,265L35,265ZM75,255L85,255L85,265L75,265ZM105,255L115,255L115,265L105,265ZM125,255L135,255L135,265L125,265ZM165,255L265,255L265,265L165,265ZM285,255L305,255L305,265L285,265ZM15,265L25,265L25,275L15,275ZM35,265L65,265L65,275L35,275ZM75,265L85,265L85,275L75,275ZM95,265L115,265L115,275L95,275ZM125,265L135,265L135,275L125,275ZM145,265L155,265L155,275L145,275ZM185,265L205,265L205,275L185,275ZM265,265L295,265L295,275L265,275ZM15,275L25,275L25,285L15,285ZM35,275L65,275L65,285L35,285ZM75,275L85,275L85,285L75,285ZM95,275L115,275L115,285L95,285ZM135,275L145,275L145,285L135,285ZM155,275L165,275L165,285L155,285ZM175,275L185,275L185,285L175,285ZM195,275L205,275L205,285L195,285ZM225,275L285,275L285,285L225,285ZM295,275L305,275L305,285L295,285ZM15,285L25,285L25,295L15,295ZM75,285L85,285L85,295L75,295ZM95,285L105,285L105,295L95,295ZM115,285L125,285L125,295L115,295ZM135,285L155,285L155,295L135,295ZM175,285L185,285L185,295L175,295ZM195,285L225,285L225,295L195,295ZM295,285L305,285L305,295L295,295ZM15,295L85,295L85,305L15,305ZM95,295L105,295L105,305L95,305ZM125,295L135,295L135,305L125,305ZM195,295L205,295L205,305L195,305ZM215,295L225,295L225,305L215,305ZM235,295L245,295L245,305L235,305ZM265,295L295,295L295,305L265,305Z"/></svg>
