<?xml version="1.0"?>
<svg xmlns="http://www.w3.org/2000/svg" xmlns:xlink="http://www.w3.org/1999/xlink" version="1.1" width="320px" height="320px" viewBox="0 0 320 320"><rect x="0" y="0" width="320" height="320" fill="#ffffff" fill-opacity="1"/><path fill="#000000" fill-opacity="1" d="M15,15L85,15L85,25L15,25ZM105,15L115,15L115,25L105,25ZM135,15L155,15L155,25L135,25ZM175,15L185,15L185,25L175,25ZM235,15L305,15L305,25L235,25ZM15,25L25,25L25,35L15,35ZM75,25L85,25L85,35L75,35ZM95,25L105,25L105,35L95,35ZM125,25L175,25L175,35L125,35ZM195,25L205,25L205,35L195,35ZM235,25L245,25L245,35L235,35ZM295,25L305,25L305,35L295,35ZM15,35L25,35L25,45L15,45ZM35,35L65,35L65,45L35,45ZM75,35L85,35L85,45L75,45ZM95,35L155,35L155,45L95,45ZM175,35L225,35L225,45L175,45ZM235,35L245,35L245,45L235,45ZM255,35L285,35L285,45L255,45ZM295,35L305,35L305,45L295,45ZM15,45L25,45L25,55L15,55ZM35,45L65,45L65,55L35,55ZM75,45L85,45L85,55L75,55ZM105,45L135,45L135,55L105,55ZM145,45L175,45L175,55L145,55ZM185,45L215,45L215,55L185,55ZM235,45L245,45L245,55L235,55ZM255,45L285,45L285,55L255,55ZM295,45L305,45L305,55L295,55ZM15,55L25,55L25,65L15,65ZM35,55L65,55L65,65L35,65ZM75,55L85,55L85,65L75,65ZM95,55L105,55L105,65L95,65ZM145,55L165,55L165,65L145,65ZM175,55L185,55L185,65L175,65ZM195,55L215,55L215,65L195,65ZM235,55L245,55L245,65L235,65ZM255,55L285,55L285,65L255,65ZM295,55L305,55L305,65L295,65ZM15,65L25,65L25,75L15,75ZM75,65L85,65L85,75L75,75ZM95,65L115,65L115,75L95,75ZM125,65L135,65L135,75L125,75ZM145,65L165,65L165,75L145,75ZM185,65L205,65L205,75L185,75ZM215,65L225,65L225,75L215,75ZM235,65L245,65L245,75L235,75ZM295,65L305,65L305,75L295,75ZM15,75L85,75L85,85L15,85ZM95,75L105,75L105,85L95,85ZM115,75L125,75L125,85L115,85ZM135,75L145,75L145,85L135,85ZM155,75L165,75L165,85L155,85ZM175,75L185,75L185,85L175,85ZM195,75L205,75L205,85L195,85ZM215,75L225,75L225,85L215,85ZM235,75L305,75L305,85L235,85ZM95,85L115,85L115,95L95,95ZM135,85L145,85L145,95L135,95ZM155,85L165,85L165,95L155,95ZM185,85L195,85L195,95L185,95ZM205,85L225,85L225,95L205,95ZM15,95L35,95L35,105L15,105ZM45,95L55,95L55,105L45,105ZM75,95L95,95L95,105L75,105ZM115,95L125,95L125,105L115,105ZM165,95L185,95L185,105L165,105ZM215,95L225,95L225,105L215,105ZM235,95L265,95L265,105L235,105ZM275,95L295,95L295,105L275,105ZM15,105L25,105L25,115L15,115ZM35,105L75,105L75,115L35,115ZM85,105L105,105L105,115L85,115ZM115,105L135,105L135,115L115,115ZM155,105L175,105L175,115L155,115ZM185,105L205,105L205,115L185,115ZM215,105L225,105L225,115L215,115ZM235,105L245,105L245,115L235,115ZM255,105L275,105L275,115L255,115ZM25,115L55,115L55,125L25,125ZM75,115L125,115L125,125L75,125ZM185,115L195,115L195,125L185,125ZM205,115L215,115L215,125L205,125ZM225,115L235,115L235,125L225,125ZM295,115L305,115L305,125L295,125ZM35,125L45,125L45,135L35,135ZM65,125L75,125L75,135L65,135ZM95,125L105,125L105,135L95,135ZM155,125L175,125L175,135L155,135ZM185,125L195,125L195,135L185,135ZM235,125L255,125L255,135L235,135ZM265,125L275,125L275,135L265,135ZM295,125L305,125L305,135L295,135ZM35,135L55,135L55,145L35,145ZM75,135L95,135L95,145L75,145ZM135,135L145,135L145,145L135,145ZM195,135L205,135L205,145L195,145ZM235,135L245,135L245,145L235,145ZM275,135L285,135L285,145L275,145ZM295,135L305,135L305,145L295,145ZM35,145L55,145L55,155L35,155ZM65,145L75,145L75,155L65,155ZM105,145L145,145L145,155L105,155ZM175,145L235,145L235,155L175,155ZM285,145L295,145L295,155L285,155ZM75,155L115,155L115,165L75,165ZM135,155L145,155L145,165L135,165ZM205,155L215,155L215,165L205,165ZM235,155L255,155L255,165L235,165ZM275,155L285,155L285,165L275,165ZM295,155L305,155L305,165L295,165ZM15,165L45,165L45,175L15,175ZM55,165L65,165L65,175L55,175ZM115,165L125,165L125,175L115,175ZM135,165L165,165L165,175L135,175ZM175,165L185,165L185,175L175,175ZM215,165L245,165L245,175L215,175ZM275,165L285,165L285,175L275,175ZM295,165L305,165L305,175L295,175ZM35,175L45,175L45,185L35,185ZM55,175L65,175L65,185L55,185ZM75,175L95,175L95,185L75,185ZM105,175L115,175L115,185L105,185ZM125,175L135,175L135,185L125,185ZM145,175L165,175L165,185L145,185ZM185,175L195,175L195,185L185,185ZM205,175L225,175L225,185L205,185ZM235,175L255,175L255,185L235,185ZM275,175L285,175L285,185L275,185ZM25,185L35,185L35,195L25,195ZM55,185L75,185L75,195L55,195ZM95,185L125,185L125,195L95,195ZM165,185L185,185L185,195L165,195ZM235,185L245,185L245,195L235,195ZM255,185L265,185L265,195L255,195ZM275,185L295,185L295,195L275,195ZM15,195L25,195L25,205L15,205ZM55,195L65,195L65,205L55,205ZM75,195L95,195L95,205L75,205ZM105,195L115,195L115,205L105,205ZM145,195L155,195L155,205L145,205ZM185,195L195,195L195,205L185,205ZM205,195L245,195L245,205L205,205ZM275,195L285,195L285,205L275,205ZM295,195L305,195L305,205L295,205ZM35,205L55,205L55,215L35,215ZM85,205L115,205L115,215L85,215ZM125,205L135,205L135,215L125,215ZM145,205L155,205L155,215L145,215ZM185,205L195,205L195,215L185,215ZM205,205L255,205L255,215L205,215ZM265,205L275,205L275,215L265,215ZM285,205L295,205L295,215L285,215ZM15,215L25,215L25,225L15,225ZM35,215L55,215L55,225L35,225ZM65,215L85,215L85,225L65,225ZM95,215L105,215L105,225L95,225ZM115,215L145,215L145,225L115,225ZM155,215L165,215L165,225L155,225ZM215,215L275,215L275,225L215,225ZM295,215L305,215L305,225L295,225ZM95,225L105,225L105,235L95,235ZM115,225L155,225L155,235L115,235ZM185,225L205,225L205,235L185,235ZM215,225L225,225L225,235L215,235ZM255,225L265,225L265,235L255,235ZM285,225L295,225L295,235L285,235ZM15,235L85,235L85,245L15,245ZM95,235L115,235L115,245L95,245ZM125,235L165,235L165,245L125,245ZM185,235L205,235L205,245L185,245ZM215,235L225,235L225,245L215,245ZM235,235L245,235L245,245L235,245ZM255,235L265,235L265,245L255,245ZM285,235L295,235L295,245L285,245ZM15,245L25,245L25,255L15,255ZM75,245L85,245L85,255L75,255ZM125,245L155,245L155,255L125,255ZM175,245L195,245L195,255L175,255ZM205,245L225,245L225,255L205,255ZM255,245L275,245L275,255L255,255ZM285,245L305,245L305,255L285,255ZM15,255L25,255L25,265L15,265ZM35,255L65,255L65,265L35,265ZM75,255L85,255L85,265L75,265ZM115,255L135,255L135,265L115,265ZM155,255L165,255L165,265L155,265ZM185,255L265,255L265,265L185,265ZM275,255L285,255L285,265L275,265ZM15,265L25,265L25,275L15,275ZM35,265L65,265L65,275L35,275ZM75,265L85,265L85,275L75,275ZM95,265L135,265L135,275L95,275ZM145,265L205,265L205,275L145,275ZM215,265L245,265L245,275L215,275ZM265,265L275,265L275,275L265,275ZM295,265L305,265L305,275L295,275ZM15,275L25,275L25,285L15,285ZM35,275L65,275L65,285L35,285ZM75,275L85,275L85,285L75,285ZM105,275L135,275L135,285L105,285ZM145,275L165,275L165,285L145,285ZM175,275L195,275L195,285L175,285ZM205,275L215,275L215,285L205,285ZM225,275L245,275L245,285L225,285ZM275,275L285,275L285,285L275,285ZM295,275L305,275L305,285L295,285ZM15,285L25,285L25,295L15,295ZM75,285L85,285L85,295L75,295ZM95,285L105,285L105,295L95,295ZM115,285L135,285L135,295L115,295ZM175,285L195,285L195,295L175,295ZM215,285L225,285L225,295L215,295ZM245,285L275,285L275,295L245,295ZM295,285L305,285L305,295L295,295ZM15,295L85,295L85,305L15,305ZM95,295L105,295L105,305L95,305ZM135,295L155,295L155,305L135,305ZM185,295L195,295L195,305L185,305ZM205,295L225,295L225,305L205,305ZM235,295L265,295L265,305L235,305ZM275,295L295,295L295,305L275,305Z"/></svg>
