<?xml version="1.0"?>
<svg xmlns="http://www.w3.org/2000/svg" xmlns:xlink="http://www.w3.org/1999/xlink" version="1.1" width="320px" height="320px" viewBox="0 0 320 320"><rect x="0" y="0" width="320" height="320" fill="#ffffff" fill-opacity="1"/><path fill="#000000" fill-opacity="1" d="M15,15L85,15L85,25L15,25ZM95,15L115,15L115,25L95,25ZM155,15L165,15L165,25L155,25ZM215,15L225,15L225,25L215,25ZM235,15L305,15L305,25L235,25ZM15,25L25,25L25,35L15,35ZM75,25L85,25L85,35L75,35ZM145,25L155,25L155,35L145,35ZM195,25L205,25L205,35L195,35ZM215,25L225,25L225,35L215,35ZM235,25L245,25L245,35L235,35ZM295,25L305,25L305,35L295,35ZM15,35L25,35L25,45L15,45ZM35,35L65,35L65,45L35,45ZM75,35L85,35L85,45L75,45ZM95,35L105,35L105,45L95,45ZM125,35L175,35L175,45L125,45ZM215,35L225,35L225,45L215,45ZM235,35L245,35L245,45L235,45ZM255,35L285,35L285,45L255,45ZM295,35L305,35L305,45L295,45ZM15,45L25,45L25,55L15,55ZM35,45L65,45L65,55L35,55ZM75,45L85,45L85,55L75,55ZM95,45L115,45L115,55L95,55ZM125,45L135,45L135,55L125,55ZM155,45L205,45L205,55L155,55ZM235,45L245,45L245,55L235,55ZM255,45L285,45L285,55L255,55ZM295,45L305,45L305,55L295,55ZM15,55L25,55L25,65L15,65ZM35,55L65,55L65,65L35,65ZM75,55L85,55L85,65L75,65ZM95,55L135,55L135,65L95,65ZM155,55L165,55L165,65L155,65ZM175,55L205,55L205,65L175,65ZM215,55L225,55L225,65L215,65ZM235,55L245,55L245,65L235,65ZM255,55L285,55L285,65L255,65ZM295,55L305,55L305,65L295,65ZM15,65L25,65L25,75L15,75ZM75,65L85,65L85,75L75,75ZM105,65L115,65L115,75L105,75ZM135,65L145,65L145,75L135,75ZM155,65L165,65L165,75L155,75ZM185,65L205,65L205,75L185,75ZM235,65L245,65L245,75L235,75ZM295,65L305,65L305,75L295,75ZM15,75L85,75L85,85L15,85ZM95,75L105,75L105,85L95,85ZM115,75L125,75L125,85L115,85ZM135,75L145,75L145,85L135,85ZM155,75L165,75L165,85L155,85ZM175,75L185,75L185,85L175,85ZM195,75L205,75L205,85L195,85ZM215,75L225,75L225,85L215,85ZM235,75L305,75L305,85L235,85ZM105,85L115,85L115,95L105,95ZM125,85L135,85L135,95L125,95ZM145,85L185,85L185,95L145,95ZM205,85L215,85L215,95L205,95ZM15,95L55,95L55,105L15,105ZM75,95L85,95L85,105L75,105ZM95,95L105,95L105,105L95,105ZM145,95L155,95L155,105L145,105ZM175,95L195,95L195,105L175,105ZM205,95L235,95L235,105L205,105ZM255,95L285,95L285,105L255,105ZM295,95L305,95L305,105L295,105ZM15,105L65,105L65,115L15,115ZM85,105L95,105L95,115L85,115ZM105,105L115,105L115,115L105,115ZM155,105L165,105L165,115L155,115ZM205,105L215,105L215,115L205,115ZM235,105L255,105L255,115L235,115ZM285,105L305,105L305,115L285,115ZM15,115L25,115L25,125L15,125ZM35,115L45,115L45,125L35,125ZM55,115L65,115L65,125L55,125ZM75,115L85,115L85,125L75,125ZM145,115L155,115L155,125L145,125ZM175,115L185,115L185,125L175,125ZM215,115L235,115L235,125L215,125ZM245,115L275,115L275,125L245,125ZM15,125L45,125L45,135L15,135ZM55,125L75,125L75,135L55,135ZM95,125L105,125L105,135L95,135ZM125,125L145,125L145,135L125,135ZM165,125L175,125L175,135L165,135ZM185,125L195,125L195,135L185,135ZM215,125L235,125L235,135L215,135ZM245,125L255,125L255,135L245,135ZM265,125L295,125L295,135L265,135ZM45,135L55,135L55,145L45,145ZM75,135L95,135L95,145L75,145ZM105,135L115,135L115,145L105,145ZM125,135L135,135L135,145L125,145ZM145,135L175,135L175,145L145,145ZM185,135L205,135L205,145L185,145ZM215,135L235,135L235,145L215,145ZM285,135L295,135L295,145L285,145ZM15,145L25,145L25,155L15,155ZM35,145L45,145L45,155L35,155ZM55,145L65,145L65,155L55,155ZM85,145L95,145L95,155L85,155ZM105,145L135,145L135,155L105,155ZM175,145L225,145L225,155L175,155ZM235,145L245,145L245,155L235,155ZM275,145L285,145L285,155L275,155ZM295,145L305,145L305,155L295,155ZM15,155L45,155L45,165L15,165ZM65,155L95,155L95,165L65,165ZM115,155L125,155L125,165L115,165ZM135,155L145,155L145,165L135,165ZM155,155L165,155L165,165L155,165ZM185,155L205,155L205,165L185,165ZM235,155L245,155L245,165L235,165ZM255,155L285,155L285,165L255,165ZM295,155L305,155L305,165L295,165ZM15,165L35,165L35,175L15,175ZM55,165L65,165L65,175L55,175ZM115,165L125,165L125,175L115,175ZM135,165L155,165L155,175L135,175ZM175,165L185,165L185,175L175,175ZM195,165L215,165L215,175L195,175ZM225,165L285,165L285,175L225,175ZM295,165L305,165L305,175L295,175ZM55,175L85,175L85,185L55,185ZM105,175L115,175L115,185L105,185ZM125,175L135,175L135,185L125,185ZM145,175L155,175L155,185L145,185ZM175,175L185,175L185,185L175,185ZM195,175L205,175L205,185L195,185ZM215,175L225,175L225,185L215,185ZM235,175L245,175L245,185L235,185ZM255,175L285,175L285,185L255,185ZM25,185L45,185L45,195L25,195ZM65,185L75,185L75,195L65,195ZM105,185L115,185L115,195L105,195ZM135,185L155,185L155,195L135,195ZM165,185L185,185L185,195L165,195ZM205,185L235,185L235,195L205,195ZM255,185L265,185L265,195L255,195ZM285,185L295,185L295,195L285,195ZM15,195L25,195L25,205L15,205ZM45,195L55,195L55,205L45,205ZM75,195L85,195L85,205L75,205ZM115,195L145,195L145,205L115,205ZM165,195L195,195L195,205L165,205ZM215,195L225,195L225,205L215,205ZM45,205L65,205L65,215L45,215ZM85,205L125,205L125,215L85,215ZM135,205L145,205L145,215L135,215ZM155,205L185,205L185,215L155,215ZM205,205L215,205L215,215L205,215ZM235,205L255,205L255,215L235,215ZM265,205L285,205L285,215L265,215ZM295,205L305,205L305,215L295,215ZM25,215L45,215L45,225L25,225ZM65,215L85,215L85,225L65,225ZM115,215L155,215L155,225L115,225ZM175,215L265,215L265,225L175,225ZM295,215L305,215L305,225L295,225ZM95,225L105,225L105,235L95,235ZM135,225L155,225L155,235L135,235ZM175,225L185,225L185,235L175,235ZM205,225L225,225L225,235L205,235ZM255,225L275,225L275,235L255,235ZM285,225L295,225L295,235L285,235ZM15,235L85,235L85,245L15,245ZM115,235L155,235L155,245L115,245ZM165,235L175,235L175,245L165,245ZM195,235L225,235L225,245L195,245ZM235,235L245,235L245,245L235,245ZM255,235L275,235L275,245L255,245ZM285,235L295,235L295,245L285,245ZM15,245L25,245L25,255L15,255ZM75,245L85,245L85,255L75,255ZM105,245L125,245L125,255L105,255ZM165,245L175,245L175,255L165,255ZM195,245L225,245L225,255L195,255ZM255,245L285,245L285,255L255,255ZM15,255L25,255L25,265L15,265ZM35,255L65,255L65,265L35,265ZM75,255L85,255L85,265L75,265ZM105,255L125,255L125,265L105,265ZM135,255L145,255L145,265L135,265ZM155,255L205,255L205,265L155,265ZM215,255L265,255L265,265L215,265ZM285,255L305,255L305,265L285,265ZM15,265L25,265L25,275L15,275ZM35,265L65,265L65,275L35,275ZM75,265L85,265L85,275L75,275ZM95,265L105,265L105,275L95,275ZM125,265L145,265L145,275L125,275ZM155,265L165,265L165,275L155,275ZM185,265L195,265L195,275L185,275ZM205,265L215,265L215,275L205,275ZM225,265L245,265L245,275L225,275ZM265,265L295,265L295,275L265,275ZM15,275L25,275L25,285L15,285ZM35,275L65,275L65,285L35,285ZM75,275L85,275L85,285L75,285ZM95,275L105,275L105,285L95,285ZM115,275L135,275L135,285L115,285ZM145,275L155,275L155,285L145,285ZM165,275L195,275L195,285L165,285ZM235,275L285,275L285,285L235,285ZM295,275L305,275L305,285L295,285ZM15,285L25,285L25,295L15,295ZM75,285L85,285L85,295L75,295ZM95,285L115,285L115,295L95,295ZM125,285L135,285L135,295L125,295ZM155,285L165,285L165,295L155,295ZM175,285L215,285L215,295L175,295ZM295,285L305,285L305,295L295,295ZM15,295L85,295L85,305L15,305ZM95,295L125,295L125,305L95,305ZM135,295L145,295L145,305L135,305ZM155,295L165,295L165,305L155,305ZM175,295L185,295L185,305L175,305ZM215,295L225,295L225,305L215,305ZM235,295L245,295L245,305L235,305ZM265,295L295,295L295,305L265,305Z"/></svg>
