<?xml version="1.0"?>
<svg xmlns="http://www.w3.org/2000/svg" xmlns:xlink="http://www.w3.org/1999/xlink" version="1.1" width="320px" height="320px" viewBox="0 0 320 320"><rect x="0" y="0" width="320" height="320" fill="#ffffff" fill-opacity="1"/><path fill="#000000" fill-opacity="1" d="M10,10L94,10L94,22L10,22ZM130,10L142,10L142,22L130,22ZM178,10L190,10L190,22L178,22ZM202,10L214,10L214,22L202,22ZM226,10L310,10L310,22L226,22ZM10,22L22,22L22,34L10,34ZM82,22L94,22L94,34L82,34ZM106,22L142,22L142,34L106,34ZM226,22L238,22L238,34L226,34ZM298,22L310,22L310,34L298,34ZM10,34L22,34L22,46L10,46ZM34,34L70,34L70,46L34,46ZM82,34L94,34L94,46L82,46ZM106,34L118,34L118,46L106,46ZM190,34L214,34L214,46L190,46ZM226,34L238,34L238,46L226,46ZM250,34L286,34L286,46L250,46ZM298,34L310,34L310,46L298,46ZM10,46L22,46L22,58L10,58ZM34,46L70,46L70,58L34,58ZM82,46L94,46L94,58L82,58ZM118,46L130,46L130,58L118,58ZM154,46L178,46L178,58L154,58ZM190,46L202,46L202,58L190,58ZM226,46L238,46L238,58L226,58ZM250,46L286,46L286,58L250,58ZM298,46L310,46L310,58L298,58ZM10,58L22,58L22,70L10,70ZM34,58L70,58L70,70L34,70ZM82,58L94,58L94,70L82,70ZM106,58L142,58L142,70L106,70ZM154,58L166,58L166,70L154,70ZM178,58L190,58L190,70L178,70ZM202,58L214,58L214,70L202,70ZM226,58L238,58L238,70L226,70ZM250,58L286,58L286,70L250,70ZM298,58L310,58L310,70L298,70ZM10,70L22,70L22,82L10,82ZM82,70L94,70L94,82L82,82ZM106,70L118,70L118,82L106,82ZM130,70L142,70L142,82L130,82ZM154,70L166,70L166,82L154,82ZM190,70L214,70L214,82L190,82ZM226,70L238,70L238,82L226,82ZM298,70L310,70L310,82L298,82ZM10,82L94,82L94,94L10,94ZM106,82L118,82L118,94L106,94ZM130,82L142,82L142,94L130,94ZM154,82L166,82L166,94L154,94ZM178,82L190,82L190,94L178,94ZM202,82L214,82L214,94L202,94ZM226,82L310,82L310,94L226,94ZM106,94L118,94L118,106L106,106ZM130,94L154,94L154,106L130,106ZM166,94L178,94L178,106L166,106ZM202,94L214,94L214,106L202,106ZM10,106L34,106L34,118L10,118ZM46,106L58,106L58,118L46,118ZM82,106L106,106L106,118L82,118ZM142,106L166,106L166,118L142,118ZM178,106L190,106L190,118L178,118ZM226,106L262,106L262,118L226,118ZM274,106L298,106L298,118L274,118ZM10,118L22,118L22,130L10,130ZM34,118L46,118L46,130L34,130ZM118,118L130,118L130,130L118,130ZM142,118L178,118L178,130L142,130ZM190,118L202,118L202,130L190,130ZM250,118L274,118L274,130L250,130ZM286,118L310,118L310,130L286,130ZM34,130L46,130L46,142L34,142ZM58,130L94,130L94,142L58,142ZM106,130L118,130L118,142L106,142ZM142,130L190,130L190,142L142,142ZM202,130L214,130L214,142L202,142ZM226,130L250,130L250,142L226,142ZM262,130L286,130L286,142L262,142ZM298,130L310,130L310,142L298,142ZM10,142L22,142L22,154L10,154ZM46,142L58,142L58,154L46,154ZM70,142L82,142L82,154L70,154ZM94,142L178,142L178,154L94,154ZM226,142L238,142L238,154L226,154ZM250,142L262,142L262,154L250,154ZM286,142L310,142L310,154L286,154ZM10,154L34,154L34,166L10,166ZM82,154L106,154L106,166L82,166ZM130,154L154,154L154,166L130,166ZM178,154L190,154L190,166L178,166ZM238,154L262,154L262,166L238,166ZM274,154L286,154L286,166L274,166ZM298,154L310,154L310,166L298,166ZM46,166L70,166L70,178L46,178ZM106,166L118,166L118,178L106,178ZM142,166L154,166L154,178L142,178ZM166,166L190,166L190,178L166,178ZM202,166L214,166L214,178L202,178ZM226,166L238,166L238,178L226,178ZM262,166L298,166L298,178L262,178ZM10,178L22,178L22,190L10,190ZM58,178L70,178L70,190L58,190ZM82,178L94,178L94,190L82,190ZM106,178L130,178L130,190L106,190ZM142,178L154,178L154,190L142,190ZM166,178L214,178L214,190L166,190ZM226,178L238,178L238,190L226,190ZM250,178L274,178L274,190L250,190ZM286,178L310,178L310,190L286,190ZM22,190L34,190L34,202L22,202ZM46,190L58,190L58,202L46,202ZM70,190L82,190L82,202L70,202ZM94,190L106,190L106,202L94,202ZM118,190L130,190L130,202L118,202ZM142,190L154,190L154,202L142,202ZM214,190L238,190L238,202L214,202ZM10,202L46,202L46,214L10,214ZM82,202L106,202L106,214L82,214ZM130,202L142,202L142,214L130,214ZM154,202L178,202L178,214L154,214ZM202,202L262,202L262,214L202,214ZM298,202L310,202L310,214L298,214ZM106,214L118,214L118,226L106,226ZM154,214L214,214L214,226L154,226ZM250,214L274,214L274,226L250,226ZM10,226L94,226L94,238L10,238ZM106,226L118,226L118,238L106,238ZM130,226L166,226L166,238L130,238ZM178,226L214,226L214,238L178,238ZM226,226L238,226L238,238L226,238ZM250,226L262,226L262,238L250,238ZM286,226L310,226L310,238L286,238ZM10,238L22,238L22,250L10,250ZM82,238L94,238L94,250L82,250ZM130,238L142,238L142,250L130,250ZM154,238L166,238L166,250L154,250ZM178,238L214,238L214,250L178,250ZM250,238L262,238L262,250L250,250ZM286,238L310,238L310,250L286,250ZM10,250L22,250L22,262L10,262ZM34,250L70,250L70,262L34,262ZM82,250L94,250L94,262L82,262ZM130,250L142,250L142,262L130,262ZM202,250L298,250L298,262L202,262ZM10,262L22,262L22,274L10,274ZM34,262L70,262L70,274L34,274ZM82,262L94,262L94,274L82,274ZM106,262L118,262L118,274L106,274ZM130,262L154,262L154,274L130,274ZM178,262L190,262L190,274L178,274ZM202,262L214,262L214,274L202,274ZM238,262L250,262L250,274L238,274ZM10,274L22,274L22,286L10,286ZM34,274L70,274L70,286L34,286ZM82,274L94,274L94,286L82,286ZM130,274L142,274L142,286L130,286ZM190,274L202,274L202,286L190,286ZM238,274L250,274L250,286L238,286ZM298,274L310,274L310,286L298,286ZM10,286L22,286L22,298L10,298ZM82,286L94,286L94,298L82,298ZM106,286L118,286L118,298L106,298ZM178,286L190,286L190,298L178,298ZM202,286L226,286L226,298L202,298ZM286,286L310,286L310,298L286,298ZM10,298L94,298L94,310L10,310ZM106,298L142,298L142,310L106,310ZM154,298L166,298L166,310L154,310ZM190,298L202,298L202,310L190,310ZM238,298L310,298L310,310L238,310Z"/></svg>
